<svg width="43" height="43" viewBox="0 0 43 43" fill="none" xmlns="http://www.w3.org/2000/svg">
<rect width="43" height="43" rx="21.5" fill="#ECFFC4"/>
<g clip-path="url(#clip0_282_4795)">
<path d="M19 15H17C16.4696 15 15.9609 15.2107 15.5858 15.5858C15.2107 15.9609 15 16.4696 15 17V29C15 29.5304 15.2107 30.0391 15.5858 30.4142C15.9609 30.7893 16.4696 31 17 31H27C27.5304 31 28.0391 30.7893 28.4142 30.4142C28.7893 30.0391 29 29.5304 29 29V17C29 16.4696 28.7893 15.9609 28.4142 15.5858C28.0391 15.2107 27.5304 15 27 15H25" stroke="#96C237" stroke-width="2" stroke-linecap="round" stroke-linejoin="round"/>
<path d="M19 15C19 14.4696 19.2107 13.9609 19.5858 13.5858C19.9609 13.2107 20.4696 13 21 13H23C23.5304 13 24.0391 13.2107 24.4142 13.5858C24.7893 13.9609 25 14.4696 25 15C25 15.5304 24.7893 16.0391 24.4142 16.4142C24.0391 16.7893 23.5304 17 23 17H21C20.4696 17 19.9609 16.7893 19.5858 16.4142C19.2107 16.0391 19 15.5304 19 15Z" stroke="#96C237" stroke-width="2" stroke-linecap="round" stroke-linejoin="round"/>
<path d="M19 27V22" stroke="#96C237" stroke-width="2" stroke-linecap="round" stroke-linejoin="round"/>
<path d="M22 27V26" stroke="#96C237" stroke-width="2" stroke-linecap="round" stroke-linejoin="round"/>
<path d="M25 27V24" stroke="#96C237" stroke-width="2" stroke-linecap="round" stroke-linejoin="round"/>
</g>
<defs>
<clipPath id="clip0_282_4795">
<rect width="24" height="24" fill="white" transform="translate(10 10)"/>
</clipPath>
</defs>
</svg>
