<svg width="43" height="43" viewBox="0 0 43 43" fill="none" xmlns="http://www.w3.org/2000/svg">
<rect width="43" height="43" rx="21.5" fill="#D6D0FF"/>
<g clip-path="url(#clip0_282_4781)">
<path d="M25 20.0001L29.553 17.7241C29.7054 17.648 29.8748 17.612 30.045 17.6197C30.2152 17.6273 30.3806 17.6784 30.5256 17.7679C30.6706 17.8575 30.7902 17.9826 30.8733 18.1314C30.9563 18.2802 30.9999 18.4477 31 18.6181V25.3821C30.9999 25.5525 30.9563 25.7201 30.8733 25.8688C30.7902 26.0176 30.6706 26.1428 30.5256 26.2323C30.3806 26.3219 30.2152 26.3729 30.045 26.3806C29.8748 26.3882 29.7054 26.3523 29.553 26.2761L25 24.0001V20.0001Z" stroke="#6D5FCE" stroke-width="2" stroke-linecap="round" stroke-linejoin="round"/>
<path d="M13 18C13 17.4696 13.2107 16.9609 13.5858 16.5858C13.9609 16.2107 14.4696 16 15 16H23C23.5304 16 24.0391 16.2107 24.4142 16.5858C24.7893 16.9609 25 17.4696 25 18V26C25 26.5304 24.7893 27.0391 24.4142 27.4142C24.0391 27.7893 23.5304 28 23 28H15C14.4696 28 13.9609 27.7893 13.5858 27.4142C13.2107 27.0391 13 26.5304 13 26V18Z" stroke="#6D5FCE" stroke-width="2" stroke-linecap="round" stroke-linejoin="round"/>
</g>
<defs>
<clipPath id="clip0_282_4781">
<rect width="24" height="24" fill="white" transform="translate(10 10)"/>
</clipPath>
</defs>
</svg>
