<svg width="43" height="43" viewBox="0 0 43 43" fill="none" xmlns="http://www.w3.org/2000/svg">
<rect width="43" height="43" rx="21.5" fill="#FFE6D0"/>
<g clip-path="url(#clip0_282_4752)">
<path d="M13 16C13 15.4696 13.2107 14.9609 13.5858 14.5858C13.9609 14.2107 14.4696 14 15 14H27C27.5304 14 28.0391 14.2107 28.4142 14.5858C28.7893 14.9609 29 15.4696 29 16V28C29 28.5304 28.7893 29.0391 28.4142 29.4142C28.0391 29.7893 27.5304 30 27 30H15C14.4696 30 13.9609 29.7893 13.5858 29.4142C13.2107 29.0391 13 28.5304 13 28V16Z" stroke="#FFA95C" stroke-width="2" stroke-linecap="round" stroke-linejoin="round"/>
<path d="M25 12V16" stroke="#FFA95C" stroke-width="2" stroke-linecap="round" stroke-linejoin="round"/>
<path d="M17 12V16" stroke="#FFA95C" stroke-width="2" stroke-linecap="round" stroke-linejoin="round"/>
<path d="M13 20H29" stroke="#FFA95C" stroke-width="2" stroke-linecap="round" stroke-linejoin="round"/>
<path d="M17 24H19V26H17V24Z" stroke="#FFA95C" stroke-width="2" stroke-linecap="round" stroke-linejoin="round"/>
</g>
<defs>
<clipPath id="clip0_282_4752">
<rect width="24" height="24" fill="white" transform="translate(9 9)"/>
</clipPath>
</defs>
</svg>
