<svg width="98" height="22" viewBox="0 0 98 22" fill="none" xmlns="http://www.w3.org/2000/svg">
<rect width="99" height="22" transform="translate(6)" fill="#DC001A"/>
<path d="M21.2014 6.54545V16H19.4749L15.3616 10.0494H15.2923V16H13.2934V6.54545H15.0477L19.1286 12.4915H19.2117V6.54545H21.2014ZM22.853 16V6.54545H29.2237V8.19354H24.8519V10.4464H28.896V12.0945H24.8519V14.3519H29.2422V16H22.853ZM32.9411 16L30.2359 6.54545H32.4195L33.9845 13.1147H34.0629L35.7895 6.54545H37.6592L39.3811 13.1286H39.4642L41.0292 6.54545H43.2128L40.5075 16H38.5594L36.759 9.81854H36.6851L34.8893 16H32.9411ZM48.9211 16H46.779L50.0429 6.54545H52.6189L55.8781 16H53.7361L51.3678 8.70597H51.2939L48.9211 16ZM48.7872 12.2837H53.8469V13.8441H48.7872V12.2837ZM60.3676 16H57.0161V6.54545H60.3953C61.3463 6.54545 62.165 6.73473 62.8513 7.11328C63.5376 7.48875 64.0654 8.02888 64.4347 8.73366C64.8071 9.43845 64.9933 10.2817 64.9933 11.2635C64.9933 12.2483 64.8071 13.0947 64.4347 13.8026C64.0654 14.5104 63.5345 15.0536 62.8421 15.4322C62.1527 15.8107 61.3279 16 60.3676 16ZM59.015 14.2873H60.2845C60.8754 14.2873 61.3725 14.1826 61.7757 13.9734C62.1819 13.761 62.4866 13.4332 62.6897 12.9901C62.8959 12.5438 62.999 11.9683 62.999 11.2635C62.999 10.5649 62.8959 9.99396 62.6897 9.55078C62.4866 9.1076 62.1834 8.78137 61.7803 8.57209C61.3771 8.36281 60.8801 8.25817 60.2892 8.25817H59.015V14.2873ZM69.8256 16H66.4741V6.54545H69.8533C70.8043 6.54545 71.623 6.73473 72.3093 7.11328C72.9956 7.48875 73.5234 8.02888 73.8928 8.73366C74.2652 9.43845 74.4513 10.2817 74.4513 11.2635C74.4513 12.2483 74.2652 13.0947 73.8928 13.8026C73.5234 14.5104 72.9925 15.0536 72.3001 15.4322C71.6107 15.8107 70.7859 16 69.8256 16ZM68.473 14.2873H69.7425C70.3335 14.2873 70.8305 14.1826 71.2337 13.9734C71.6399 13.761 71.9446 13.4332 72.1477 12.9901C72.3539 12.5438 72.457 11.9683 72.457 11.2635C72.457 10.5649 72.3539 9.99396 72.1477 9.55078C71.9446 9.1076 71.6415 8.78137 71.2383 8.57209C70.8351 8.36281 70.3381 8.25817 69.7472 8.25817H68.473V14.2873ZM75.9321 16V6.54545H82.3028V8.19354H77.931V10.4464H81.9751V12.0945H77.931V14.3519H82.3213V16H75.9321ZM87.2436 16H83.892V6.54545H87.2713C88.2223 6.54545 89.041 6.73473 89.7273 7.11328C90.4136 7.48875 90.9414 8.02888 91.3107 8.73366C91.6831 9.43845 91.8693 10.2817 91.8693 11.2635C91.8693 12.2483 91.6831 13.0947 91.3107 13.8026C90.9414 14.5104 90.4105 15.0536 89.718 15.4322C89.0286 15.8107 88.2038 16 87.2436 16ZM85.891 14.2873H87.1605C87.7514 14.2873 88.2485 14.1826 88.6516 13.9734C89.0579 13.761 89.3626 13.4332 89.5657 12.9901C89.7719 12.5438 89.875 11.9683 89.875 11.2635C89.875 10.5649 89.7719 9.99396 89.5657 9.55078C89.3626 9.1076 89.0594 8.78137 88.6562 8.57209C88.2531 8.36281 87.756 8.25817 87.1651 8.25817H85.891V14.2873Z" fill="white"/>
<path fill-rule="evenodd" clip-rule="evenodd" d="M6.91555 11L11.2645 22.0001H0.735474L5.08444 11L0.735474 0L11.2645 4.67544e-07L6.91555 11Z" fill="#DC001A"/>
</svg>
