<svg width="44" height="43" viewBox="0 0 44 43" fill="none" xmlns="http://www.w3.org/2000/svg">
<rect x="0.0623608" width="43" height="43" rx="21.5" fill="#FFE6D0"/>
<g clip-path="url(#clip0_320_6950)">
<path d="M21.8148 25C21.8148 25.7956 22.1309 26.5587 22.6935 27.1213C23.2561 27.6839 24.0192 28 24.8148 28C25.6105 28 26.3735 27.6839 26.9361 27.1213C27.4987 26.5587 27.8148 25.7956 27.8148 25C27.8148 24.2044 27.4987 23.4413 26.9361 22.8787C26.3735 22.3161 25.6105 22 24.8148 22C24.0192 22 23.2561 22.3161 22.6935 22.8787C22.1309 23.4413 21.8148 24.2044 21.8148 25Z" stroke="#FFA95C" stroke-width="1.4" stroke-linecap="round" stroke-linejoin="round"/>
<path d="M22.8148 27.5V32L24.8148 30.5L26.8148 32V27.5" stroke="#FFA95C" stroke-width="1.4" stroke-linecap="round" stroke-linejoin="round"/>
<path d="M19.8148 29H14.8148C14.2844 29 13.7757 28.7893 13.4006 28.4142C13.0255 28.0391 12.8148 27.5304 12.8148 27V17C12.8148 15.9 13.7148 15 14.8148 15H28.8148C29.3452 15 29.8539 15.2107 30.229 15.5858C30.6041 15.9609 30.8148 16.4696 30.8148 17V27C30.8144 27.3507 30.7219 27.6952 30.5463 27.9988C30.3708 28.3025 30.1185 28.5546 29.8148 28.73" stroke="#FFA95C" stroke-width="1.4" stroke-linecap="round" stroke-linejoin="round"/>
<path d="M15.8148 19H27.8148" stroke="#FFA95C" stroke-width="1.4" stroke-linecap="round" stroke-linejoin="round"/>
<path d="M15.8148 22H18.8148" stroke="#FFA95C" stroke-width="1.4" stroke-linecap="round" stroke-linejoin="round"/>
<path d="M15.8148 25H17.8148" stroke="#FFA95C" stroke-width="1.4" stroke-linecap="round" stroke-linejoin="round"/>
</g>
<defs>
<clipPath id="clip0_320_6950">
<rect width="24" height="24" fill="white" transform="translate(9.8148 10)"/>
</clipPath>
</defs>
</svg>
