<svg width="52" height="52" viewBox="0 0 52 52" fill="none" xmlns="http://www.w3.org/2000/svg">
<rect width="52" height="52" rx="26" fill="#ECFFC4"/>
<g clip-path="url(#clip0_334_7155)">
<path d="M26.5 29.375C26.5 30.4027 26.9083 31.3883 27.635 32.115C28.3617 32.8417 29.3473 33.25 30.375 33.25C31.4027 33.25 32.3883 32.8417 33.115 32.115C33.8417 31.3883 34.25 30.4027 34.25 29.375C34.25 28.3473 33.8417 27.3617 33.115 26.635C32.3883 25.9083 31.4027 25.5 30.375 25.5C29.3473 25.5 28.3617 25.9083 27.635 26.635C26.9083 27.3617 26.5 28.3473 26.5 29.375Z" stroke="#96C237" stroke-width="2" stroke-linecap="round" stroke-linejoin="round"/>
<path d="M27.7915 32.6041V38.4166L30.3748 36.4791L32.9582 38.4166V32.6041" stroke="#96C237" stroke-width="2" stroke-linecap="round" stroke-linejoin="round"/>
<path d="M23.9167 34.5417H17.4583C16.7732 34.5417 16.1161 34.2695 15.6316 33.7851C15.1472 33.3006 14.875 32.6435 14.875 31.9584V19.0417C14.875 17.6209 16.0375 16.4584 17.4583 16.4584H35.5417C36.2268 16.4584 36.8839 16.7305 37.3684 17.215C37.8528 17.6995 38.125 18.3566 38.125 19.0417V31.9584C38.1245 32.4114 38.0049 32.8563 37.7782 33.2485C37.5515 33.6408 37.2257 33.9664 36.8333 34.193" stroke="#96C237" stroke-width="2" stroke-linecap="round" stroke-linejoin="round"/>
<path d="M18.75 21.625H34.25" stroke="#96C237" stroke-width="2" stroke-linecap="round" stroke-linejoin="round"/>
<path d="M18.75 25.5H22.625" stroke="#96C237" stroke-width="2" stroke-linecap="round" stroke-linejoin="round"/>
<path d="M18.75 29.375H21.3333" stroke="#96C237" stroke-width="2" stroke-linecap="round" stroke-linejoin="round"/>
</g>
<defs>
<clipPath id="clip0_334_7155">
<rect width="31" height="31" fill="white" transform="translate(11 10)"/>
</clipPath>
</defs>
</svg>
