<svg width="44" height="43" viewBox="0 0 44 43" fill="none" xmlns="http://www.w3.org/2000/svg">
<rect x="0.943176" width="43" height="43" rx="21.5" fill="#D6D0FF"/>
<g clip-path="url(#clip0_954_9489)">
<path d="M21 22C21 22.2652 21.1054 22.5196 21.2929 22.7071C21.4804 22.8946 21.7348 23 22 23C22.2652 23 22.5196 22.8946 22.7071 22.7071C22.8946 22.5196 23 22.2652 23 22C23 21.7348 22.8946 21.4804 22.7071 21.2929C22.5196 21.1054 22.2652 21 22 21C21.7348 21 21.4804 21.1054 21.2929 21.2929C21.1054 21.4804 21 21.7348 21 22Z" stroke="#6D5FCE" stroke-width="1.4" stroke-linecap="round" stroke-linejoin="round"/>
<path d="M17 22C17 23.3261 17.5268 24.5979 18.4645 25.5355C19.4021 26.4732 20.6739 27 22 27C23.3261 27 24.5979 26.4732 25.5355 25.5355C26.4732 24.5979 27 23.3261 27 22C27 20.6739 26.4732 19.4021 25.5355 18.4645C24.5979 17.5268 23.3261 17 22 17C20.6739 17 19.4021 17.5268 18.4645 18.4645C17.5268 19.4021 17 20.6739 17 22Z" stroke="#6D5FCE" stroke-width="1.4" stroke-linecap="round" stroke-linejoin="round"/>
<path d="M13 22C13 23.1819 13.2328 24.3522 13.6851 25.4442C14.1374 26.5361 14.8003 27.5282 15.636 28.364C16.4718 29.1997 17.4639 29.8626 18.5558 30.3149C19.6478 30.7672 20.8181 31 22 31C23.1819 31 24.3522 30.7672 25.4442 30.3149C26.5361 29.8626 27.5282 29.1997 28.364 28.364C29.1997 27.5282 29.8626 26.5361 30.3149 25.4442C30.7672 24.3522 31 23.1819 31 22C31 20.8181 30.7672 19.6478 30.3149 18.5558C29.8626 17.4639 29.1997 16.4718 28.364 15.636C27.5282 14.8003 26.5361 14.1374 25.4442 13.6851C24.3522 13.2328 23.1819 13 22 13C20.8181 13 19.6478 13.2328 18.5558 13.6851C17.4639 14.1374 16.4718 14.8003 15.636 15.636C14.8003 16.4718 14.1374 17.4639 13.6851 18.5558C13.2328 19.6478 13 20.8181 13 22Z" stroke="#6D5FCE" stroke-width="1.4" stroke-linecap="round" stroke-linejoin="round"/>
</g>
<defs>
<clipPath id="clip0_954_9489">
<rect width="24" height="24" fill="white" transform="translate(10 10)"/>
</clipPath>
</defs>
</svg>
