<svg width="23" height="24" viewBox="0 0 23 24" fill="none" xmlns="http://www.w3.org/2000/svg">
<circle opacity="0.07" cx="11.5" cy="12.5029" r="11.5" fill="black"/>
<path d="M16.1377 15.8311C16.1377 16.0264 16.0596 16.2217 15.9189 16.3623L14.8564 17.4248C14.7158 17.5654 14.5205 17.6436 14.3252 17.6436C14.1299 17.6436 13.9346 17.5654 13.7939 17.4248L11.4971 15.1279L9.2002 17.4248C9.05957 17.5654 8.86426 17.6436 8.66895 17.6436C8.47363 17.6436 8.27832 17.5654 8.1377 17.4248L7.0752 16.3623C6.93457 16.2217 6.85645 16.0264 6.85645 15.8311C6.85645 15.6357 6.93457 15.4404 7.0752 15.2998L9.37207 13.0029L7.0752 10.7061C6.93457 10.5654 6.85645 10.3701 6.85645 10.1748C6.85645 9.97949 6.93457 9.78418 7.0752 9.64355L8.1377 8.58105C8.27832 8.44043 8.47363 8.3623 8.66895 8.3623C8.86426 8.3623 9.05957 8.44043 9.2002 8.58105L11.4971 10.8779L13.7939 8.58105C13.9346 8.44043 14.1299 8.3623 14.3252 8.3623C14.5205 8.3623 14.7158 8.44043 14.8564 8.58105L15.9189 9.64355C16.0596 9.78418 16.1377 9.97949 16.1377 10.1748C16.1377 10.3701 16.0596 10.5654 15.9189 10.7061L13.6221 13.0029L15.9189 15.2998C16.0596 15.4404 16.1377 15.6357 16.1377 15.8311Z" fill="#5A5A5A"/>
</svg>
