<svg width="50" height="50" viewBox="0 0 50 50" fill="none" xmlns="http://www.w3.org/2000/svg">
<circle cx="25" cy="25" r="25" fill="#BFDBFF"/>
<path d="M13.75 18.5C13.75 19.6152 13.8107 20.4602 13.9546 21.1074C14.0965 21.7462 14.3093 22.1456 14.5819 22.4181C14.8544 22.6907 15.2538 22.9035 15.8926 23.0454C16.5398 23.1893 17.3848 23.25 18.5 23.25C19.6152 23.25 20.4602 23.1893 21.1074 23.0454C21.7462 22.9035 22.1456 22.6907 22.4181 22.4181C22.6907 22.1456 22.9035 21.7462 23.0454 21.1074C23.1893 20.4602 23.25 19.6152 23.25 18.5C23.25 17.3848 23.1893 16.5398 23.0454 15.8926C22.9035 15.2538 22.6907 14.8544 22.4181 14.5819C22.1456 14.3093 21.7462 14.0965 21.1074 13.9546C20.4602 13.8107 19.6152 13.75 18.5 13.75C17.3848 13.75 16.5398 13.8107 15.8926 13.9546C15.2538 14.0965 14.8544 14.3093 14.5819 14.5819C14.3093 14.8544 14.0965 15.2538 13.9546 15.8926C13.8107 16.5398 13.75 17.3848 13.75 18.5Z" stroke="#0053BE" stroke-width="1.5" stroke-linecap="round" stroke-linejoin="round"/>
<path d="M13.75 31.5C13.75 32.6152 13.8107 33.4602 13.9546 34.1074C14.0965 34.7462 14.3093 35.1456 14.5819 35.4181C14.8544 35.6907 15.2538 35.9035 15.8926 36.0454C16.5398 36.1893 17.3848 36.25 18.5 36.25C19.6152 36.25 20.4602 36.1893 21.1074 36.0454C21.7462 35.9035 22.1456 35.6907 22.4181 35.4181C22.6907 35.1456 22.9035 34.7462 23.0454 34.1074C23.1893 33.4602 23.25 32.6152 23.25 31.5C23.25 30.3848 23.1893 29.5398 23.0454 28.8926C22.9035 28.2538 22.6907 27.8544 22.4181 27.5819C22.1456 27.3093 21.7462 27.0965 21.1074 26.9546C20.4602 26.8107 19.6152 26.75 18.5 26.75C17.3848 26.75 16.5398 26.8107 15.8926 26.9546C15.2538 27.0965 14.8544 27.3093 14.5819 27.5819C14.3093 27.8544 14.0965 28.2538 13.9546 28.8926C13.8107 29.5398 13.75 30.3848 13.75 31.5Z" stroke="#0053BE" stroke-width="1.5" stroke-linecap="round" stroke-linejoin="round"/>
<path d="M26.75 31.5C26.75 32.6152 26.8107 33.4602 26.9546 34.1074C27.0965 34.7462 27.3093 35.1456 27.5819 35.4181C27.8544 35.6907 28.2538 35.9035 28.8926 36.0454C29.5398 36.1893 30.3848 36.25 31.5 36.25C32.6152 36.25 33.4602 36.1893 34.1074 36.0454C34.7462 35.9035 35.1456 35.6907 35.4181 35.4181C35.6907 35.1456 35.9035 34.7462 36.0454 34.1074C36.1893 33.4602 36.25 32.6152 36.25 31.5C36.25 30.3848 36.1893 29.5398 36.0454 28.8926C35.9035 28.2538 35.6907 27.8544 35.4181 27.5819C35.1456 27.3093 34.7462 27.0965 34.1074 26.9546C33.4602 26.8107 32.6152 26.75 31.5 26.75C30.3848 26.75 29.5398 26.8107 28.8926 26.9546C28.2538 27.0965 27.8544 27.3093 27.5819 27.5819C27.3093 27.8544 27.0965 28.2538 26.9546 28.8926C26.8107 29.5398 26.75 30.3848 26.75 31.5Z" stroke="#0053BE" stroke-width="1.5" stroke-linecap="round" stroke-linejoin="round"/>
<path d="M31.5 15V18.5M31.5 22V18.5M31.5 18.5H35H28" stroke="#0053BE" stroke-width="1.5" stroke-linecap="round" stroke-linejoin="round"/>
</svg>
