<svg width="254" height="87" viewBox="0 0 254 87" fill="none" xmlns="http://www.w3.org/2000/svg">
<path d="M64.7376 57.3071C64.7376 73.6382 51.3743 87 35.0414 87C18.7085 87 5.34521 73.6382 5.34521 57.3071C5.34521 43.3515 15.145 31.4744 28.2113 28.5051V35.3344C19.5994 37.7099 13.3632 45.1331 12.1753 54.0409H25.8356V60.5733H12.1753C13.6601 71.8566 23.4599 80.4675 35.0414 80.4675C47.8108 80.4675 58.2044 70.075 58.2044 57.3071C58.2044 45.7269 49.5925 35.9283 38.308 34.4436V75.1228L35.0414 69.7781L31.7748 75.4198V27.9112C32.9627 27.9112 33.8536 27.6143 35.0414 27.6143C36.2292 27.6143 37.4171 27.6143 38.308 27.9112C53.1561 29.3959 64.7376 42.1638 64.7376 57.3071Z" fill="#D94230"/>
<path d="M35.0416 0L1.48486 14.8464V26.7235L2.37575 25.8328V15.4403L13.3633 19.8942H56.4228L68.5983 14.5495L35.0416 0Z" fill="#2959A8"/>
<path d="M56.4232 17.8157C56.4232 20.785 56.4232 30.5836 56.4232 30.5836C50.4839 26.1297 43.0599 23.4573 35.0419 23.4573C27.0239 23.4573 19.5999 26.1297 13.6606 30.5836V17.8157C13.6606 17.8157 32.3692 3.26619 56.4232 17.8157Z" fill="#2959A8"/>
<path opacity="0.3" d="M56.4232 17.8157C56.4232 20.785 56.4232 30.5836 56.4232 30.5836C50.4839 26.1297 43.0599 23.4573 35.0419 23.4573C27.0239 23.4573 19.5999 26.1297 13.6606 30.5836V17.8157C13.6606 17.8157 32.3692 3.26619 56.4232 17.8157Z" fill="url(#paint0_linear_121_5345)"/>
<path d="M2.07874 24.0512C3.22679 24.0512 4.15747 23.1207 4.15747 21.9727C4.15747 20.8248 3.22679 19.8942 2.07874 19.8942C0.930683 19.8942 0 20.8248 0 21.9727C0 23.1207 0.930683 24.0512 2.07874 24.0512Z" fill="#D94230"/>
<path d="M83.0111 28.3482H102.611C103.501 28.3482 104.392 28.6451 104.986 29.239C105.58 29.8328 105.877 30.7236 105.877 31.6144C105.877 32.5052 105.58 33.396 104.986 33.9898C104.392 34.5837 103.501 34.8806 102.611 34.8806H86.2776L86.8716 33.9898V45.2731L86.2776 44.6792H99.9379C100.829 44.6792 101.72 44.9762 102.611 45.57C103.204 46.1639 103.501 47.0547 103.501 47.9454C103.501 48.8362 103.204 49.727 102.611 50.3209C102.017 50.9147 101.126 51.2117 99.9379 51.2117H86.5746L86.8716 50.6178V62.198L86.2776 62.4949H102.611C103.501 62.4949 104.392 62.7919 104.986 63.3857C105.58 63.9796 105.877 64.8703 105.877 65.7611C105.877 66.6519 105.58 67.5427 104.986 68.1366C104.392 68.7304 103.501 69.0274 102.611 69.0274H83.0111C82.1202 69.0274 81.2293 68.7304 80.3384 68.1366C79.7445 67.5427 79.4475 66.6519 79.4475 65.7611V31.9113C79.4475 31.0205 79.7445 30.1297 80.3384 29.239C80.9323 28.3482 82.1202 28.3482 83.0111 28.3482Z" fill="#D94230"/>
<path d="M133.495 26.2696C134.385 26.2696 135.276 26.5665 135.87 27.1604C136.464 27.7543 136.761 28.6451 136.761 29.8328V65.4642C136.761 66.3549 136.464 67.2457 135.87 67.8396C135.276 68.4334 134.385 68.7304 133.495 68.7304C132.604 68.7304 131.713 68.4334 131.119 67.8396C130.525 67.2457 130.228 66.3549 130.228 65.4642V62.4949L131.416 63.0887C131.416 63.6826 131.119 64.2764 130.525 64.8703C129.931 65.4641 129.337 66.3549 128.446 66.9488C127.555 67.5427 126.367 68.1365 125.18 68.7304C123.992 69.3242 122.507 69.3242 121.022 69.3242C118.349 69.3242 115.974 68.7304 113.895 67.2457C111.816 65.7611 110.035 63.9795 108.847 61.6041C107.659 59.2287 107.065 56.5563 107.065 53.2901C107.065 50.0239 107.659 47.3515 108.847 44.9761C110.035 42.6007 111.816 40.5222 113.895 39.3345C115.974 37.8498 118.349 37.256 121.022 37.256C122.804 37.256 124.289 37.5529 125.477 38.1468C126.961 38.7406 128.149 39.3345 129.04 39.9283C129.931 40.8191 130.822 41.413 131.416 42.3038C132.01 43.1945 132.307 43.7884 132.307 44.3823L130.228 45.273V29.8328C130.228 28.942 130.525 28.0512 131.119 27.1604C131.713 26.5665 132.604 26.2696 133.495 26.2696ZM121.913 63.3857C123.695 63.3857 125.18 63.0887 126.367 62.1979C127.555 61.3072 128.743 60.1194 129.337 58.6348C129.931 57.1502 130.525 55.6655 130.525 53.587C130.525 51.8055 130.228 50.0239 129.337 48.5392C128.743 47.0546 127.555 45.8669 126.367 44.9761C125.18 44.0853 123.695 43.7884 121.913 43.7884C120.131 43.7884 118.646 44.0853 117.459 44.9761C116.271 45.8669 115.083 47.0546 114.489 48.5392C113.895 50.0239 113.301 51.8055 113.301 53.587C113.301 55.3686 113.598 57.1502 114.489 58.6348C115.083 60.1194 116.271 61.3072 117.459 62.1979C118.646 62.7918 120.131 63.3857 121.913 63.3857Z" fill="#D94230"/>
<path d="M155.47 69.6212C152.203 69.6212 149.233 69.0273 146.858 67.5427C144.482 66.0581 142.7 64.2765 141.215 61.9011C140.028 59.5256 139.137 56.8533 139.137 53.884C139.137 50.3209 139.731 47.3516 141.215 44.9761C142.7 42.6007 144.482 40.5222 146.858 39.3345C149.233 38.1468 151.609 37.256 153.985 37.256C156.064 37.256 157.845 37.5529 159.627 38.4437C161.409 39.3345 162.894 40.2253 164.378 41.7099C165.863 43.1946 166.754 44.6792 167.645 46.7577C168.536 48.5393 168.833 50.6178 168.833 52.6963C168.833 53.5871 168.536 54.4779 167.645 55.0717C166.754 55.6656 166.16 55.9625 165.269 55.9625H142.997L141.215 50.0239H162.597L161.409 51.2116V49.727C161.409 48.5393 160.815 47.6485 160.221 46.7577C159.627 45.8669 158.736 45.2731 157.548 44.6792C156.361 44.0854 155.47 43.7884 154.282 43.7884C153.094 43.7884 151.906 44.0854 151.015 44.3823C150.124 44.6792 149.233 45.2731 148.343 45.8669C147.452 46.4608 147.155 47.6485 146.561 48.8362C146.264 50.0239 145.967 51.5086 145.967 53.5871C145.967 55.6656 146.264 57.4471 147.155 58.9318C148.046 60.4164 149.233 61.6041 150.421 62.198C151.906 63.0888 153.391 63.3857 154.876 63.3857C156.361 63.3857 157.548 63.3857 158.439 63.0888C159.33 62.7919 159.924 62.4949 160.518 62.198C161.112 61.9011 161.409 61.6041 162.003 61.3072C162.597 61.0103 163.488 60.7134 164.082 60.7134C164.972 60.7134 165.566 61.0103 166.16 61.6041C166.754 62.198 167.051 62.7919 167.051 63.6826C167.051 64.8704 166.457 65.7611 165.566 66.6519C164.675 67.5427 163.191 68.1366 161.409 69.0273C159.33 69.3243 157.548 69.6212 155.47 69.6212Z" fill="#2959A8"/>
<path d="M187.542 37.5529C190.214 37.5529 192.59 38.1468 194.966 39.6314C197.044 41.1161 198.826 42.8976 200.014 45.2731C201.202 47.6485 201.796 50.3208 201.796 53.5871C201.796 56.8533 201.202 59.5256 200.014 61.901C198.826 64.2765 197.044 66.355 194.966 67.5427C192.887 69.0273 190.511 69.6212 187.839 69.6212C186.354 69.6212 184.869 69.3242 183.384 68.7304C181.899 68.1365 180.712 67.5427 179.821 66.9488C178.93 66.058 178.039 65.4642 177.445 64.5734C176.851 63.6826 176.554 63.0888 176.554 62.4949L178.336 61.6041V76.7475C178.336 77.6382 178.039 78.529 177.445 79.4198C176.851 80.0137 175.96 80.3106 175.069 80.3106C174.178 80.3106 173.288 80.0137 172.694 79.4198C172.1 78.826 171.803 77.9352 171.803 76.7475V41.7099C171.803 40.8191 172.1 39.9283 172.694 39.0376C173.288 38.4437 174.178 38.1468 175.069 38.1468C175.96 38.1468 176.851 38.4437 177.445 39.0376C178.039 39.6314 178.336 40.5222 178.336 41.7099V44.6792L177.445 44.0853C177.445 43.4915 177.742 42.8976 178.336 42.3038C178.93 41.7099 179.524 40.8191 180.415 40.2253C181.306 39.6314 182.493 39.0376 183.681 38.4437C184.869 37.5529 186.057 37.5529 187.542 37.5529ZM186.651 43.7884C184.869 43.7884 183.384 44.0853 182.196 44.9761C181.009 45.8669 179.821 47.0546 179.227 48.5393C178.633 50.0239 178.039 51.5086 178.039 53.5871C178.039 55.3686 178.336 57.1502 179.227 58.6348C179.821 60.1195 181.009 61.3072 182.196 62.198C183.384 63.0888 184.869 63.3857 186.651 63.3857C188.433 63.3857 189.917 63.0888 191.105 62.198C192.293 61.3072 193.481 60.1195 194.075 58.6348C194.669 57.1502 195.263 55.3686 195.263 53.5871C195.263 51.8055 194.966 50.0239 194.075 48.5393C193.481 47.0546 192.293 45.8669 191.105 44.9761C189.62 44.3823 188.136 43.7884 186.651 43.7884Z" fill="#2959A8"/>
<path d="M204.469 38.7406H218.129C219.02 38.7406 219.911 39.0375 220.505 39.6314C221.099 40.2252 221.396 41.116 221.396 42.0068C221.396 42.8976 221.099 43.7884 220.505 44.3822C219.911 44.9761 219.02 45.273 218.129 45.273H204.469C203.578 45.273 202.687 44.9761 202.093 44.3822C201.499 43.7884 201.202 42.8976 201.202 42.0068C201.202 41.116 201.499 40.2252 202.093 39.6314C202.687 39.0375 203.578 38.7406 204.469 38.7406ZM210.705 31.3174C211.596 31.3174 212.487 31.6143 213.081 32.2082C213.675 32.802 213.972 33.6928 213.972 34.5836V60.4163C213.972 61.0102 213.972 61.3071 214.268 61.901C214.565 62.1979 214.862 62.4948 215.159 62.7918C215.456 63.0887 216.05 63.0887 216.347 63.0887C216.941 63.0887 217.238 63.0887 217.535 62.7918C218.129 62.4948 218.426 62.4948 219.02 62.4948C219.614 62.4948 219.911 62.7918 220.505 63.3856C220.802 63.9795 221.099 64.5733 221.099 65.4641C221.099 66.6518 220.505 67.5426 219.317 68.1365C218.129 68.7303 216.941 69.3242 215.456 69.3242C214.565 69.3242 213.675 69.3242 212.784 69.0273C211.893 69.0273 211.002 68.4334 210.111 68.1365C209.22 67.5426 208.626 66.9488 208.032 65.7611C207.438 64.5733 207.141 63.0887 207.141 61.3071V35.1774C207.141 34.2866 207.438 33.3959 208.032 32.802C208.626 31.6143 209.517 31.3174 210.705 31.3174Z" fill="#2959A8"/>
<path d="M253.764 53.5871C253.764 56.8533 253.17 59.5256 251.686 61.901C250.201 64.2765 248.419 66.355 246.043 67.5427C243.668 69.0273 240.995 69.6212 238.025 69.6212C235.056 69.6212 232.383 69.0273 230.007 67.5427C227.632 66.058 225.85 64.2765 224.365 61.901C222.88 59.5256 222.286 56.5563 222.286 53.5871C222.286 50.6178 222.88 47.6485 224.365 45.2731C225.85 42.8976 227.632 40.8191 230.007 39.6314C232.383 38.1468 235.056 37.5529 238.025 37.5529C240.995 37.5529 243.668 38.1468 246.043 39.6314C248.419 41.1161 250.201 42.8976 251.686 45.2731C253.17 47.6485 253.764 50.3208 253.764 53.5871ZM246.934 53.5871C246.934 51.5086 246.637 50.0239 245.746 48.5393C244.855 47.0546 243.965 45.8669 242.48 45.2731C241.292 44.3823 239.807 44.0853 238.025 44.0853C236.244 44.0853 235.056 44.3823 233.571 45.2731C232.086 46.1638 231.195 47.3516 230.304 48.5393C229.413 50.0239 229.116 51.8055 229.116 53.5871C229.116 55.6655 229.413 57.1502 230.304 58.6348C231.195 60.1195 232.086 61.3072 233.571 61.901C234.759 62.7918 236.244 63.0888 238.025 63.0888C239.807 63.0888 240.995 62.7918 242.48 61.901C243.965 61.0103 244.855 59.8225 245.746 58.6348C246.637 57.1502 246.934 55.6655 246.934 53.5871Z" fill="#2959A8"/>
<defs>
<linearGradient id="paint0_linear_121_5345" x1="48.1991" y1="25.8865" x2="14.456" y2="18.3761" gradientUnits="userSpaceOnUse">
<stop stop-color="white" stop-opacity="0"/>
<stop offset="1" stop-color="white"/>
</linearGradient>
</defs>
</svg>
