<?xml version="1.0" encoding="UTF-8"?>
<svg xmlns="http://www.w3.org/2000/svg" xmlns:xlink="http://www.w3.org/1999/xlink" viewBox="0 0 150 49.49">
  <defs>
    <style>
      .cls-1 {
        fill: url(#linear-gradient);
        mix-blend-mode: luminosity;
        opacity: .3;
      }

      .cls-1, .cls-2, .cls-3 {
        stroke-width: 0px;
      }

      .cls-4 {
        isolation: isolate;
      }

      .cls-2 {
        fill: #2858a7;
      }

      .cls-3 {
        fill: #d94230;
      }
    </style>
    <linearGradient id="linear-gradient" x1="23.72" y1="12.76" x2="7.12" y2="9.07" gradientUnits="userSpaceOnUse">
      <stop offset="0" stop-color="#fff" stop-opacity="0"/>
      <stop offset=".09" stop-color="rgba(255, 255, 255, .05)" stop-opacity=".05"/>
      <stop offset=".26" stop-color="rgba(255, 255, 255, .2)" stop-opacity=".2"/>
      <stop offset=".5" stop-color="rgba(255, 255, 255, .42)" stop-opacity=".42"/>
      <stop offset=".78" stop-color="rgba(255, 255, 255, .74)" stop-opacity=".74"/>
      <stop offset="1" stop-color="#fff"/>
    </linearGradient>
  </defs>
  <g class="cls-4">
    <g id="Layer_2" data-name="Layer 2">
      <g id="Layer_1-2" data-name="Layer 1">
        <g>
          <g>
            <g>
              <path class="cls-2" d="M38.72,12.21h12.11c.63,0,1.15.2,1.57.6.42.4.63.91.63,1.54s-.21,1.09-.63,1.47-.95.56-1.57.56h-10.13l.32-.61v7.05l-.29-.29h8.46c.63,0,1.15.2,1.57.6.42.4.63.91.63,1.54s-.21,1.09-.63,1.47c-.42.37-.95.56-1.57.56h-8.35l.18-.29v7.31l-.29-.33h10.09c.63,0,1.15.21,1.57.63.42.42.63.91.63,1.47,0,.6-.21,1.1-.63,1.48s-.95.58-1.57.58h-12.11c-.63,0-1.15-.21-1.57-.63-.42-.42-.63-.95-.63-1.57V14.42c0-.63.21-1.15.63-1.57.42-.42.95-.63,1.57-.63Z"/>
              <path class="cls-2" d="M70.15,10.77c.63,0,1.14.21,1.55.61.41.41.62.94.62,1.59v22.35c0,.63-.21,1.15-.62,1.57-.41.42-.93.63-1.55.63s-1.15-.21-1.56-.63c-.41-.42-.61-.95-.61-1.57v-1.77l.79.33c0,.31-.17.69-.51,1.14-.34.45-.8.89-1.38,1.32s-1.26.8-2.04,1.1c-.78.3-1.63.45-2.55.45-1.66,0-3.17-.43-4.52-1.28-1.35-.86-2.42-2.04-3.2-3.54-.78-1.51-1.18-3.24-1.18-5.19s.39-3.72,1.18-5.23c.78-1.51,1.84-2.69,3.16-3.54,1.33-.86,2.8-1.28,4.41-1.28,1.04,0,1.99.16,2.86.47.87.31,1.62.71,2.26,1.19.64.48,1.13.97,1.48,1.47s.53.91.53,1.25l-1.3.47v-9.69c0-.63.2-1.15.61-1.57.41-.42.93-.63,1.56-.63ZM62.85,33.91c1.06,0,1.99-.27,2.78-.8.79-.53,1.42-1.25,1.86-2.17.45-.92.67-1.94.67-3.07s-.22-2.19-.67-3.11c-.45-.92-1.07-1.64-1.86-2.17-.79-.53-1.73-.79-2.78-.79s-1.95.27-2.75.79c-.8.53-1.42,1.26-1.86,2.17-.45.92-.67,1.95-.67,3.11s.22,2.16.67,3.07c.45.92,1.07,1.64,1.86,2.17.79.53,1.71.8,2.75.8Z"/>
              <path class="cls-2" d="M83.79,37.89c-2.05,0-3.83-.43-5.33-1.28-1.51-.86-2.67-2.02-3.47-3.49-.81-1.47-1.21-3.13-1.21-4.99,0-2.17.44-4.02,1.32-5.55.88-1.53,2.03-2.71,3.46-3.53,1.42-.82,2.93-1.23,4.52-1.23,1.23,0,2.39.25,3.49.76s2.07,1.2,2.91,2.08c.84.88,1.51,1.9,2.01,3.06.49,1.16.74,2.39.74,3.69-.03.58-.25,1.05-.69,1.41-.43.36-.94.54-1.52.54h-13.82l-1.09-3.62h13.27l-.79.72v-.98c-.05-.7-.3-1.33-.74-1.88-.45-.55-1-.99-1.66-1.32-.66-.33-1.37-.49-2.12-.49s-1.4.1-2.02.29c-.63.19-1.17.52-1.63.98-.46.46-.82,1.07-1.09,1.84-.26.77-.4,1.75-.4,2.93,0,1.3.27,2.41.81,3.31.54.9,1.24,1.59,2.1,2.06.86.47,1.77.71,2.73.71.89,0,1.6-.07,2.13-.22s.96-.32,1.29-.52c.32-.2.62-.38.89-.52.43-.22.84-.33,1.23-.33.53,0,.97.18,1.32.54.35.36.52.78.52,1.27,0,.65-.34,1.24-1.01,1.77-.63.53-1.51.99-2.64,1.39-1.13.4-2.3.6-3.51.6Z"/>
              <path class="cls-2" d="M103.68,17.82c1.69,0,3.2.43,4.54,1.28,1.34.86,2.4,2.03,3.18,3.53.78,1.5,1.17,3.23,1.17,5.21s-.39,3.72-1.17,5.23c-.78,1.51-1.83,2.69-3.15,3.54-1.31.86-2.79,1.28-4.43,1.28-.97,0-1.87-.16-2.71-.47-.84-.31-1.58-.71-2.22-1.19-.64-.48-1.13-.97-1.48-1.47s-.52-.91-.52-1.25l1.12-.47v9.51c0,.63-.2,1.15-.61,1.57-.41.42-.93.63-1.55.63s-1.15-.2-1.56-.61-.61-.94-.61-1.59v-22.17c0-.63.2-1.15.61-1.57.41-.42.93-.63,1.56-.63s1.14.21,1.55.63c.41.42.61.95.61,1.57v1.77l-.61-.33c0-.31.17-.69.51-1.14.34-.45.8-.89,1.38-1.34.58-.45,1.25-.81,2.01-1.1s1.56-.43,2.4-.43ZM103.14,21.8c-1.06,0-1.99.27-2.79.79-.79.53-1.42,1.25-1.86,2.15-.45.9-.67,1.94-.67,3.09s.22,2.16.67,3.09c.45.93,1.07,1.66,1.86,2.19.8.53,1.73.8,2.79.8s1.98-.27,2.77-.8c.78-.53,1.4-1.26,1.84-2.19s.67-1.96.67-3.09-.22-2.19-.67-3.09-1.06-1.62-1.84-2.15c-.78-.53-1.71-.79-2.77-.79Z"/>
              <path class="cls-2" d="M114.24,18.54h8.57c.58,0,1.06.19,1.45.58.38.39.58.87.58,1.45s-.19,1.02-.58,1.39c-.39.37-.87.56-1.45.56h-8.57c-.58,0-1.06-.19-1.45-.58-.39-.39-.58-.87-.58-1.45s.19-1.02.58-1.39c.38-.37.87-.56,1.45-.56ZM118.11,14.02c.63,0,1.14.21,1.54.63.4.42.6.95.6,1.57v16.1c0,.34.07.61.2.83.13.22.31.37.54.47s.48.14.74.14c.29,0,.55-.05.79-.16.24-.11.52-.16.83-.16.34,0,.64.16.92.47.28.31.41.75.41,1.3,0,.68-.37,1.23-1.1,1.66-.73.43-1.52.65-2.37.65-.51,0-1.07-.04-1.68-.13-.62-.08-1.19-.29-1.74-.61-.54-.32-1-.82-1.36-1.5s-.54-1.6-.54-2.79v-16.28c0-.63.21-1.15.63-1.57.42-.42.95-.63,1.57-.63Z"/>
              <path class="cls-2" d="M145.06,27.88c0,1.98-.44,3.72-1.32,5.23-.88,1.51-2.06,2.68-3.55,3.53-1.48.84-3.14,1.27-4.97,1.27s-3.49-.42-4.97-1.27c-1.48-.84-2.67-2.02-3.55-3.53s-1.32-3.25-1.32-5.23.44-3.72,1.32-5.23c.88-1.51,2.06-2.69,3.55-3.54,1.48-.86,3.14-1.28,4.97-1.28s3.49.43,4.97,1.28c1.48.86,2.67,2.04,3.55,3.54.88,1.51,1.32,3.25,1.32,5.23ZM140.72,27.88c0-1.23-.25-2.3-.74-3.2-.5-.9-1.16-1.61-1.99-2.12-.83-.51-1.75-.76-2.77-.76s-1.93.25-2.77.76c-.83.51-1.5,1.21-1.99,2.12-.5.9-.74,1.97-.74,3.2s.25,2.26.74,3.16c.49.9,1.16,1.61,1.99,2.12s1.75.76,2.77.76,1.93-.25,2.77-.76,1.49-1.21,1.99-2.12c.49-.9.74-1.96.74-3.16Z"/>
            </g>
            <g>
              <path class="cls-3" d="M31.87,28.25v.02c0,8.07-6.56,14.62-14.62,14.62h-.02c-8.07,0-14.61-6.56-14.61-14.62v-.02c0-6.91,4.82-12.73,11.29-14.22v3.37c-4.17,1.24-7.29,4.84-7.91,9.24h6.72v3.26h-6.74c.8,5.5,5.51,9.73,11.24,9.73h.02c6.28,0,11.36-5.09,11.36-11.36v-.02c0-5.73-4.24-10.46-9.73-11.24v20.05l-1.63-2.57-1.63,2.57V13.73c.53-.05,1.06-.09,1.61-.09h.02c.55,0,1.1.04,1.63.09,7.3.82,12.99,7,12.99,14.52Z"/>
              <polygon class="cls-2" points="17.24 0 .72 7.39 .72 7.39 .72 13.22 1.2 12.68 1.2 7.59 6.61 9.75 27.8 9.75 33.79 7.24 17.24 0"/>
              <path class="cls-2" d="M27.8,8.8v6.31c-2.96-2.16-6.59-3.46-10.56-3.46s-7.59,1.28-10.55,3.44v-6.29s9.2-7.17,21.11,0Z"/>
              <path class="cls-1" d="M27.8,8.8v6.31c-2.96-2.16-6.59-3.46-10.56-3.46s-7.59,1.28-10.55,3.44v-6.29s9.2-7.17,21.11,0Z"/>
              <circle class="cls-3" cx=".98" cy="10.88" r=".98"/>
            </g>
          </g>
          <g>
            <path class="cls-3" d="M103.13,41.74c.7,0,1.22.16,1.56.49.34.33.51.81.51,1.45,0,.34-.08.64-.25.9s-.41.46-.74.6c-.33.14-.73.21-1.21.21l.04-.49c.23,0,.48.03.77.09.29.06.57.17.85.33.27.16.5.38.68.66s.27.64.27,1.07c0,.48-.08.87-.23,1.18-.16.31-.36.54-.62.71s-.53.28-.82.34c-.29.06-.57.09-.84.09h-2.72c-.19,0-.35-.06-.48-.19-.13-.13-.19-.28-.19-.47v-6.31c0-.19.06-.35.19-.48s.29-.19.48-.19h2.75ZM102.93,43.03h-1.94l.14-.17v1.98l-.13-.1h1.96c.21,0,.4-.07.57-.21s.25-.34.25-.6c0-.31-.08-.54-.23-.68-.16-.14-.36-.21-.62-.21ZM103.02,46.02h-1.99l.1-.09v2.3l-.11-.11h2.07c.33,0,.6-.09.8-.27.2-.18.3-.45.3-.8,0-.33-.07-.56-.2-.71-.13-.15-.29-.24-.47-.27s-.35-.05-.5-.05Z"/>
            <path class="cls-3" d="M112.28,41.73c.19,0,.34.06.46.19s.17.28.17.48v3.95c0,.6-.13,1.14-.39,1.6-.26.47-.61.83-1.06,1.09-.45.26-.98.39-1.57.39s-1.12-.13-1.58-.39c-.46-.26-.81-.63-1.07-1.09-.26-.47-.39-1-.39-1.6v-3.95c0-.19.07-.35.2-.48.13-.13.3-.19.5-.19.17,0,.32.06.45.19.14.13.2.28.2.48v3.95c0,.36.08.68.24.94.16.27.36.47.62.62s.53.22.82.22c.31,0,.6-.07.87-.22s.49-.35.66-.62c.17-.27.25-.58.25-.94v-3.95c0-.19.05-.35.16-.48s.26-.19.45-.19Z"/>
            <path class="cls-3" d="M116.9,49.49c-.51,0-.97-.06-1.38-.19s-.8-.35-1.17-.67c-.09-.08-.17-.17-.22-.27-.05-.1-.08-.2-.08-.31,0-.17.06-.31.18-.44s.27-.19.45-.19c.14,0,.26.04.37.13.28.23.55.4.82.51.27.12.61.17,1.01.17.27,0,.52-.04.74-.12s.41-.2.55-.34.21-.3.21-.49c0-.22-.07-.4-.2-.56s-.33-.28-.6-.39-.61-.19-1.03-.25c-.39-.06-.74-.15-1.04-.27s-.55-.27-.75-.46c-.2-.19-.35-.4-.45-.66s-.15-.53-.15-.85c0-.47.12-.88.37-1.21s.57-.59.99-.76.87-.26,1.38-.26c.47,0,.91.07,1.31.21s.73.32.99.54c.21.17.32.36.32.58,0,.16-.06.31-.19.44s-.27.2-.44.2c-.11,0-.21-.03-.3-.1-.12-.1-.27-.2-.47-.29-.2-.09-.4-.17-.62-.23s-.42-.09-.61-.09c-.31,0-.58.04-.79.12s-.38.19-.49.33-.16.3-.16.48c0,.22.06.4.19.54.13.14.31.25.55.34s.53.16.86.22c.44.08.82.17,1.15.28s.61.25.82.42.38.39.49.64.16.57.16.94c0,.47-.13.88-.39,1.22-.26.34-.61.6-1.03.79s-.89.27-1.38.27Z"/>
            <path class="cls-3" d="M122.32,48.72c0,.19-.07.35-.21.47-.14.13-.3.19-.48.19-.2,0-.37-.06-.49-.19-.12-.13-.19-.28-.19-.47v-6.31c0-.19.07-.35.2-.48.13-.13.3-.19.5-.19.17,0,.33.06.46.19.14.13.2.28.2.48v6.31Z"/>
            <path class="cls-3" d="M129.76,41.74c.17,0,.32.06.43.17.11.12.16.26.16.44v6.36c0,.19-.06.35-.19.47-.13.13-.29.19-.48.19-.09,0-.19-.02-.29-.05s-.17-.08-.22-.14l-4.29-5.45.28-.17v5.2c0,.17-.06.32-.17.44s-.26.17-.44.17-.32-.06-.43-.17c-.11-.12-.16-.26-.16-.44v-6.36c0-.19.06-.35.19-.48s.29-.19.48-.19c.1,0,.21.02.32.06s.19.1.24.18l4.16,5.3-.19.13v-5.06c0-.18.05-.32.16-.44s.25-.17.44-.17Z"/>
            <path class="cls-3" d="M132.65,41.74h3.66c.19,0,.35.06.47.18s.19.27.19.46-.06.33-.19.44-.28.17-.47.17h-3.06l.1-.19v2.13l-.09-.09h2.55c.19,0,.35.06.48.18s.19.28.19.46-.06.33-.19.44-.29.17-.48.17h-2.52l.05-.09v2.2l-.09-.1h3.05c.19,0,.35.06.47.19s.19.28.19.44c0,.18-.06.33-.19.45s-.28.17-.47.17h-3.66c-.19,0-.35-.06-.48-.19-.13-.13-.19-.28-.19-.47v-6.31c0-.19.06-.35.19-.48s.29-.19.48-.19Z"/>
            <path class="cls-3" d="M140.68,49.49c-.51,0-.97-.06-1.38-.19s-.8-.35-1.17-.67c-.09-.08-.17-.17-.22-.27-.05-.1-.08-.2-.08-.31,0-.17.06-.31.18-.44s.27-.19.45-.19c.14,0,.26.04.37.13.28.23.55.4.82.51.27.12.61.17,1.01.17.27,0,.52-.04.74-.12s.41-.2.55-.34.21-.3.21-.49c0-.22-.07-.4-.2-.56s-.33-.28-.6-.39-.61-.19-1.03-.25c-.39-.06-.74-.15-1.04-.27s-.55-.27-.75-.46c-.2-.19-.35-.4-.45-.66s-.15-.53-.15-.85c0-.47.12-.88.37-1.21s.57-.59.99-.76.87-.26,1.38-.26c.47,0,.91.07,1.31.21s.73.32.99.54c.21.17.32.36.32.58,0,.16-.06.31-.19.44s-.27.2-.44.2c-.11,0-.21-.03-.3-.1-.12-.1-.27-.2-.47-.29-.2-.09-.4-.17-.62-.23s-.42-.09-.61-.09c-.31,0-.58.04-.79.12s-.38.19-.49.33-.16.3-.16.48c0,.22.06.4.19.54.13.14.31.25.55.34s.53.16.86.22c.44.08.82.17,1.15.28s.61.25.82.42.38.39.49.64.16.57.16.94c0,.47-.13.88-.39,1.22-.26.34-.61.6-1.03.79s-.89.27-1.38.27Z"/>
            <path class="cls-3" d="M147.2,49.49c-.51,0-.97-.06-1.38-.19s-.8-.35-1.17-.67c-.09-.08-.17-.17-.22-.27-.05-.1-.08-.2-.08-.31,0-.17.06-.31.18-.44s.27-.19.45-.19c.14,0,.26.04.37.13.28.23.55.4.82.51.27.12.61.17,1.01.17.27,0,.52-.04.74-.12s.41-.2.55-.34.21-.3.21-.49c0-.22-.07-.4-.2-.56s-.33-.28-.6-.39-.61-.19-1.03-.25c-.39-.06-.74-.15-1.04-.27s-.55-.27-.75-.46c-.2-.19-.35-.4-.45-.66s-.15-.53-.15-.85c0-.47.12-.88.37-1.21s.57-.59.99-.76.87-.26,1.38-.26c.47,0,.91.07,1.31.21s.73.32.99.54c.21.17.32.36.32.58,0,.16-.06.31-.19.44s-.27.2-.44.2c-.11,0-.21-.03-.3-.1-.12-.1-.27-.2-.47-.29-.2-.09-.4-.17-.62-.23s-.42-.09-.61-.09c-.31,0-.58.04-.79.12s-.38.19-.49.33-.16.3-.16.48c0,.22.06.4.19.54.13.14.31.25.55.34s.53.16.86.22c.44.08.82.17,1.15.28s.61.25.82.42.38.39.49.64.16.57.16.94c0,.47-.13.88-.39,1.22-.26.34-.61.6-1.03.79s-.89.27-1.38.27Z"/>
          </g>
          <path class="cls-2" d="M98,48.39c0,.31-.22.57-.66.78s-.95.32-1.53.32c-.65,0-1.17-.11-1.56-.32-.39-.21-.59-.47-.59-.78v-10.41c0-.31.21-.57.63-.78.42-.21.95-.32,1.6-.32.55,0,1.05.11,1.48.32.43.21.64.47.64.78v10.41Z"/>
        </g>
      </g>
    </g>
  </g>
</svg>