<?xml version="1.0" standalone="no"?>
<!DOCTYPE svg PUBLIC "-//W3C//DTD SVG 20010904//EN"
 "http://www.w3.org/TR/2001/REC-SVG-20010904/DTD/svg10.dtd">
<svg version="1.0" xmlns="http://www.w3.org/2000/svg"
 width="372.000000pt" height="750.000000pt" viewBox="0 0 372.000000 750.000000"
 preserveAspectRatio="xMidYMid meet">

<g transform="translate(0.000000,750.000000) scale(0.100000,-0.100000)"
fill="#000000" stroke="none">
<path d="M1158 7483 c320 -2 844 -2 1165 0 320 1 58 2 -583 2 -641 0 -903 -1
-582 -2z"/>
<path d="M3008 7483 c29 -2 74 -2 100 0 26 2 2 3 -53 3 -55 0 -76 -1 -47 -3z"/>
<path d="M433 7456 c-129 -42 -233 -119 -299 -223 -36 -55 -84 -186 -83 -225
0 -13 9 10 19 50 59 225 222 372 458 412 42 7 43 8 12 8 -19 1 -67 -9 -107
-22z"/>
<path d="M3173 7473 c9 -2 25 -2 35 0 9 3 1 5 -18 5 -19 0 -27 -2 -17 -5z"/>
<path d="M3238 7463 c7 -3 16 -2 19 1 4 3 -2 6 -13 5 -11 0 -14 -3 -6 -6z"/>
<path d="M3300 7445 c46 -18 64 -17 25 0 -16 8 -37 14 -45 14 -8 0 1 -7 20
-14z"/>
<path d="M493 7425 c-195 -42 -334 -179 -389 -380 -22 -82 -23 -132 -26 -1850
-1 -819 -5 -1332 -8 -1140 -3 193 -6 -457 -8 -1442 -1 -1190 1 -1793 8 -1793
6 0 10 -14 10 -31 0 -17 -4 -28 -10 -24 -23 14 -3 -259 26 -350 29 -90 75
-164 140 -225 75 -69 160 -112 266 -134 86 -18 268 -22 268 -6 0 6 11 10 25
10 14 0 25 -4 25 -10 0 -7 396 -10 1168 -10 1290 0 1239 -2 1380 65 127 60
220 173 267 325 21 68 34 340 16 340 -6 0 -11 11 -11 25 0 14 5 25 10 25 11 0
7 3121 -5 4400 -3 294 -6 819 -8 1165 -2 620 -3 631 -25 696 -60 180 -201 305
-387 344 -100 21 -2635 21 -2732 0z m667 -135 c5 -8 13 -46 18 -83 12 -80 43
-127 103 -157 38 -20 55 -20 592 -18 l553 3 36 24 c56 39 79 81 88 162 5 42
14 75 21 80 20 12 521 11 599 -2 167 -27 281 -129 321 -289 12 -46 14 -578 14
-3260 0 -2682 -2 -3214 -14 -3260 -40 -162 -154 -263 -326 -290 -48 -7 -471
-10 -1345 -8 l-1275 3 -65 23 c-121 41 -201 123 -238 242 -16 51 -17 265 -17
3290 0 3025 1 3239 17 3290 45 145 151 232 316 260 26 4 170 7 321 6 232 -1
275 -3 281 -16z"/>
<path d="M3434 7380 c91 -62 161 -149 201 -250 14 -36 23 -51 20 -35 -11 51
-64 149 -110 202 -42 48 -131 115 -172 130 -10 3 17 -18 61 -47z"/>
<path d="M3661 7044 c0 -11 3 -14 6 -6 3 7 2 16 -1 19 -3 4 -6 -2 -5 -13z"/>
<path d="M3672 6990 c0 -19 2 -27 5 -17 2 9 2 25 0 35 -3 9 -5 1 -5 -18z"/>
<path d="M43 6915 c0 -38 2 -53 4 -32 2 20 2 52 0 70 -2 17 -4 1 -4 -38z"/>
<path d="M3684 6835 c0 -60 1 -84 3 -52 2 32 2 81 0 110 -2 29 -3 3 -3 -58z"/>
<path d="M33 6780 c0 -25 2 -35 4 -22 2 12 2 32 0 45 -2 12 -4 2 -4 -23z"/>
<path d="M34 6340 c0 -190 2 -267 3 -172 2 94 2 250 0 345 -1 94 -3 17 -3
-173z"/>
<path d="M3685 3750 c0 -1614 1 -2139 2 -1166 2 1287 6 1773 14 1783 8 9 8 13
0 13 -7 0 -10 126 -10 435 0 331 3 435 12 435 9 0 9 2 0 8 -10 6 -13 165 -16
718 -1 390 -2 -612 -2 -2226z"/>
<path d="M4 5977 c-2 -7 -3 -69 -2 -138 l3 -124 5 138 c3 75 4 137 2 137 -1 0
-5 -6 -8 -13z"/>
<path d="M30 5983 c-3 -87 -1 -276 4 -280 3 -4 6 60 6 140 0 81 -2 147 -5 147
-3 0 -5 -3 -5 -7z"/>
<path d="M30 5568 c0 -68 0 -245 0 -395 -1 -198 -4 -273 -12 -275 -7 -3 -5 -7
5 -11 16 -6 17 22 17 398 0 223 -2 405 -5 405 -3 0 -5 -55 -5 -122z"/>
<path d="M33 4810 c0 -36 2 -50 4 -32 2 17 2 47 0 65 -2 17 -4 3 -4 -33z"/>
<path d="M14 4728 c-4 -7 -3 -8 4 -4 8 5 11 -68 11 -269 0 -201 -3 -274 -11
-269 -7 4 -8 3 -4 -4 22 -36 26 7 26 273 0 266 -4 309 -26 273z"/>
<path d="M35 2490 c0 -921 1 -1298 2 -837 2 460 2 1214 0 1675 -1 460 -2 83
-2 -838z"/>
<path d="M3684 665 c0 -60 1 -84 3 -52 2 32 2 81 0 110 -2 29 -3 3 -3 -58z"/>
<path d="M33 720 c0 -25 2 -35 4 -22 2 12 2 32 0 45 -2 12 -4 2 -4 -23z"/>
<path d="M43 585 c0 -38 2 -53 4 -32 2 20 2 52 0 70 -2 17 -4 1 -4 -38z"/>
<path d="M3671 526 c-2 -54 -33 -151 -67 -217 -65 -123 -191 -222 -340 -266
-55 -16 -156 -18 -1374 -23 l-1315 -6 1315 1 c1231 0 1319 1 1375 18 210 63
348 202 400 406 9 35 14 75 12 90 l-4 26 -2 -29z"/>
<path d="M51 492 c-1 -39 47 -170 83 -225 39 -62 114 -133 177 -170 48 -29
152 -67 178 -67 9 0 -21 13 -66 28 -183 62 -302 192 -353 384 -10 40 -19 63
-19 50z"/>
<path d="M523 23 c9 -2 25 -2 35 0 9 3 1 5 -18 5 -19 0 -27 -2 -17 -5z"/>
</g>
</svg>
