<svg width="44" height="43" viewBox="0 0 44 43" fill="none" xmlns="http://www.w3.org/2000/svg">
<rect x="0.709742" width="43" height="43" rx="21.5" fill="#FFE6D0"/>
<g clip-path="url(#clip0_954_9459)">
<path d="M13 23C13 22.7348 13.1054 22.4804 13.2929 22.2929C13.4804 22.1054 13.7348 22 14 22H18C18.2652 22 18.5196 22.1054 18.7071 22.2929C18.8946 22.4804 19 22.7348 19 23V29C19 29.2652 18.8946 29.5196 18.7071 29.7071C18.5196 29.8946 18.2652 30 18 30H14C13.7348 30 13.4804 29.8946 13.2929 29.7071C13.1054 29.5196 13 29.2652 13 29V23Z" stroke="#FFA95C" stroke-width="1.4" stroke-linecap="round" stroke-linejoin="round"/>
<path d="M19 19C19 18.7348 19.1054 18.4804 19.2929 18.2929C19.4804 18.1054 19.7348 18 20 18H24C24.2652 18 24.5196 18.1054 24.7071 18.2929C24.8946 18.4804 25 18.7348 25 19V29C25 29.2652 24.8946 29.5196 24.7071 29.7071C24.5196 29.8946 24.2652 30 24 30H20C19.7348 30 19.4804 29.8946 19.2929 29.7071C19.1054 29.5196 19 29.2652 19 29V19Z" stroke="#FFA95C" stroke-width="1.4" stroke-linecap="round" stroke-linejoin="round"/>
<path d="M25 15C25 14.7348 25.1054 14.4804 25.2929 14.2929C25.4804 14.1054 25.7348 14 26 14H30C30.2652 14 30.5196 14.1054 30.7071 14.2929C30.8946 14.4804 31 14.7348 31 15V29C31 29.2652 30.8946 29.5196 30.7071 29.7071C30.5196 29.8946 30.2652 30 30 30H26C25.7348 30 25.4804 29.8946 25.2929 29.7071C25.1054 29.5196 25 29.2652 25 29V15Z" stroke="#FFA95C" stroke-width="1.4" stroke-linecap="round" stroke-linejoin="round"/>
<path d="M14 30H28" stroke="#FFA95C" stroke-width="1.4" stroke-linecap="round" stroke-linejoin="round"/>
</g>
<defs>
<clipPath id="clip0_954_9459">
<rect width="24" height="24" fill="white" transform="translate(10 10)"/>
</clipPath>
</defs>
</svg>
