<svg width="1101" height="1011" viewBox="0 0 1101 1011" fill="none" xmlns="http://www.w3.org/2000/svg">
<mask id="mask0_109_770" style="mask-type:luminance" maskUnits="userSpaceOnUse" x="-49" y="-84" width="1150" height="1150">
<path d="M-49 -84H1101V1066H-49V-84Z" fill="white"/>
</mask>
<g mask="url(#mask0_109_770)">
<path d="M598.154 911.534C598.154 911.534 629.165 828.941 726.809 828.941C824.453 828.941 849.327 911.534 849.327 911.534H598.154Z" fill="#D94230"/>
<path d="M849.326 911.977H598.153C598.008 911.977 597.872 911.906 597.789 911.787C597.707 911.667 597.688 911.515 597.74 911.379C597.817 911.172 605.753 890.407 625.546 869.931C637.172 857.903 650.556 848.319 665.326 841.445C683.787 832.855 704.471 828.498 726.807 828.498C749.147 828.498 769.513 832.856 787.338 841.448C801.601 848.324 814.277 857.911 825.013 869.943C843.292 890.429 849.689 911.199 849.751 911.406C849.791 911.541 849.764 911.685 849.681 911.797C849.598 911.911 849.467 911.977 849.326 911.977ZM598.806 911.092H848.719C847.559 907.627 840.802 888.953 824.329 870.503C807.581 851.744 777.065 829.383 726.807 829.383C676.523 829.383 644.333 851.767 626.182 870.544C608.393 888.951 600.255 907.558 598.806 911.092Z" fill="black"/>
<path d="M202.282 911.115C202.282 911.115 224.006 872.693 280.732 872.693C337.457 872.693 376.079 911.115 376.079 911.115H202.282Z" fill="#D94230"/>
<path d="M376.079 911.557H202.282C202.125 911.557 201.98 911.474 201.901 911.337C201.822 911.202 201.82 911.035 201.897 910.898C201.952 910.801 207.517 901.103 219.966 891.554C231.445 882.747 251.306 872.25 280.733 872.25C310.133 872.25 334.573 882.729 349.899 891.521C366.504 901.045 376.295 910.705 376.392 910.802C376.519 910.928 376.556 911.117 376.488 911.284C376.419 911.449 376.258 911.557 376.079 911.557ZM203.07 910.673H374.972C372.337 908.224 363.266 900.204 349.434 892.272C334.206 883.541 309.926 873.133 280.733 873.133C251.576 873.133 231.906 883.517 220.539 892.227C210.081 900.242 204.54 908.346 203.07 910.673Z" fill="black"/>
<path d="M522.583 895.449H514.613V632.962H522.583V895.449Z" fill="#1C0311"/>
<path d="M522.583 895.671H514.613C514.49 895.671 514.392 895.571 514.392 895.449V632.962C514.392 632.839 514.49 632.738 514.613 632.738H522.583C522.705 632.738 522.804 632.839 522.804 632.962V895.449C522.804 895.571 522.705 895.671 522.583 895.671ZM514.833 895.229H522.361V633.182H514.833V895.229Z" fill="#1A1A1A"/>
<path d="M650.979 632.442V628.893C650.979 623.691 646.759 619.474 641.55 619.474H403.614C398.407 619.474 394.186 623.691 394.186 628.893V632.442C394.186 633.672 394.429 634.844 394.858 635.921H650.307C650.737 634.844 650.979 633.672 650.979 632.442Z" fill="white"/>
<path d="M650.307 636.363H394.858C394.677 636.363 394.514 636.253 394.447 636.084C393.98 634.913 393.743 633.688 393.743 632.442V628.892C393.743 623.454 398.172 619.032 403.614 619.032H641.55C646.993 619.032 651.422 623.454 651.422 628.892V632.442C651.422 633.688 651.185 634.913 650.719 636.084C650.65 636.253 650.488 636.363 650.307 636.363ZM395.163 635.479H650.002C650.358 634.499 650.537 633.476 650.537 632.442V628.892C650.537 623.942 646.506 619.916 641.55 619.916H403.614C398.659 619.916 394.628 623.942 394.628 628.892V632.442C394.628 633.476 394.807 634.499 395.163 635.479Z" fill="#1A1A1A"/>
<path d="M394.858 635.921C396.245 639.399 399.639 641.861 403.615 641.861H641.55C645.527 641.861 648.922 639.399 650.307 635.921H394.858Z" fill="#1C0311"/>
<path d="M641.55 642.082H403.615C399.642 642.082 396.125 639.697 394.653 636.003C394.626 635.935 394.634 635.859 394.675 635.798C394.716 635.737 394.785 635.7 394.858 635.7H650.307C650.38 635.7 650.449 635.737 650.49 635.798C650.531 635.859 650.539 635.935 650.512 636.003C649.041 639.697 645.523 642.082 641.55 642.082ZM395.19 636.143C396.662 639.494 399.934 641.639 403.615 641.639H641.55C645.231 641.639 648.503 639.494 649.975 636.143H395.19Z" fill="#1A1A1A"/>
<path d="M584.513 911.534H452.4C452.4 902.675 459.581 895.493 468.441 895.493H568.471C577.331 895.493 584.513 902.675 584.513 911.534Z" fill="#1C0311"/>
<path d="M584.513 911.756H452.4C452.277 911.756 452.179 911.656 452.179 911.535C452.179 902.568 459.473 895.273 468.441 895.273H568.47C577.439 895.273 584.733 902.568 584.733 911.535C584.733 911.656 584.634 911.756 584.513 911.756ZM452.622 911.313H584.29C584.171 902.692 577.12 895.715 568.47 895.715H468.441C459.792 895.715 452.741 902.692 452.622 911.313Z" fill="#1A1A1A"/>
<path d="M966.742 912.041H99.7822C99.4161 912.041 99.119 911.744 99.119 911.379C99.119 911.012 99.4161 910.715 99.7822 910.715H966.742C967.109 910.715 967.405 911.012 967.405 911.379C967.405 911.744 967.109 912.041 966.742 912.041Z" fill="#1A1A1A"/>
<path d="M130.645 842.081C130.645 842.081 121.768 824.031 100.693 839.282C111.952 851.586 124.094 849.257 130.645 842.081Z" fill="#D94230"/>
<path d="M117.122 848.421C111.299 848.255 105.516 845.207 100.368 839.58C100.282 839.487 100.242 839.362 100.255 839.236C100.268 839.11 100.333 838.996 100.435 838.922C107.705 833.662 114.349 831.732 120.187 833.182C127.592 835.023 130.905 841.606 131.042 841.886C131.123 842.05 131.095 842.245 130.973 842.38C127.413 846.278 122.676 848.427 117.636 848.428C117.464 848.429 117.293 848.426 117.122 848.421ZM101.36 839.349C106.401 844.716 112.024 847.548 117.636 847.544C122.325 847.542 126.741 845.58 130.105 842.013C129.409 840.776 126.152 835.571 119.962 834.036C114.501 832.682 108.244 834.47 101.36 839.349Z" fill="black"/>
<path d="M136.914 812.659C136.914 812.659 118.177 819.977 131.591 842.266C144.804 832.089 143.509 819.793 136.914 812.659Z" fill="#D94230"/>
<path d="M131.579 842.708C131.556 842.707 131.531 842.705 131.508 842.7C131.384 842.676 131.277 842.602 131.212 842.493C126.585 834.806 125.223 828.021 127.162 822.328C129.622 815.104 136.463 812.361 136.753 812.247C136.922 812.181 137.115 812.224 137.239 812.358C140.822 816.235 142.561 821.136 142.138 826.159C141.634 832.134 138.081 837.825 131.861 842.616C131.78 842.678 131.679 842.711 131.579 842.708ZM136.8 813.19C135.51 813.779 130.047 816.585 127.995 822.624C126.184 827.952 127.435 834.337 131.715 841.608C137.489 837.039 140.786 831.68 141.258 826.084C141.652 821.412 140.07 816.844 136.8 813.19Z" fill="black"/>
<path d="M156.159 894.917C156.159 894.917 131.709 873.469 112.042 893.658C122.335 903.61 146.897 904.34 156.159 894.917Z" fill="#D94230"/>
<path d="M134.493 901.996L134.473 901.996C125.148 901.726 116.647 898.727 111.733 893.976C111.648 893.894 111.6 893.782 111.598 893.665C111.597 893.547 111.641 893.433 111.723 893.349C122.044 882.756 133.673 883.668 141.614 886.298C150.171 889.131 156.387 894.531 156.449 894.585C156.541 894.665 156.595 894.779 156.599 894.901C156.603 895.022 156.558 895.14 156.473 895.227C152.044 899.732 143.829 902.263 134.493 901.996ZM112.673 893.646C122.81 902.979 146.311 903.68 155.5 894.943C154.063 893.771 148.536 889.516 141.311 887.128C130.266 883.48 120.634 885.672 112.673 893.646Z" fill="black"/>
<path d="M146.716 871.29C146.716 871.29 142.048 850.348 163.543 843.916C168.643 863.652 146.716 871.29 146.716 871.29Z" fill="#D94230"/>
<path d="M146.704 871.732C146.633 871.73 146.564 871.711 146.502 871.675C146.391 871.616 146.313 871.509 146.285 871.385C146.236 871.168 145.113 865.978 146.641 859.907C148.056 854.286 152.114 846.875 163.416 843.493C163.532 843.458 163.655 843.472 163.76 843.531C163.864 843.59 163.941 843.688 163.97 843.805C166.662 854.214 161.849 861.257 157.339 865.332C152.483 869.718 147.09 871.629 146.862 871.708C146.81 871.725 146.757 871.733 146.704 871.732ZM163.227 844.475C154.744 847.136 149.456 852.389 147.506 860.091C146.289 864.9 146.817 869.242 147.055 870.686C148.49 870.113 152.866 868.187 156.766 864.657C162.929 859.078 165.101 852.291 163.227 844.475Z" fill="black"/>
<path d="M146.139 871.318C146.139 871.318 132.968 847.435 111.629 864.33C125.881 881.9 146.139 871.318 146.139 871.318Z" fill="#D94230"/>
<path d="M131.511 874.906C125.441 874.732 117.745 872.572 111.285 864.609C111.211 864.516 111.176 864.399 111.189 864.282C111.202 864.164 111.262 864.058 111.354 863.985C117.746 858.923 124.062 856.974 130.126 858.196C140.447 860.272 146.282 870.663 146.526 871.105C146.583 871.209 146.597 871.332 146.562 871.446C146.528 871.559 146.448 871.655 146.343 871.71C146.133 871.82 141.117 874.403 134.257 874.854C133.39 874.91 132.471 874.933 131.511 874.906ZM112.258 864.4C118.023 871.319 125.39 874.541 134.167 873.974C139.74 873.614 144.168 871.752 145.513 871.129C144.322 869.187 138.741 860.828 129.946 859.061C124.263 857.919 118.312 859.716 112.258 864.4Z" fill="black"/>
<path d="M119.886 826.398C119.886 826.398 91.4479 837.857 88.4741 792.889C113.52 783.159 122.705 817.689 119.886 826.398Z" fill="#D94230"/>
<path d="M111.573 828.117C108.521 828.03 104.999 827.31 101.628 825.192C93.6929 820.207 89.1182 809.35 88.0323 792.918C88.0195 792.726 88.1339 792.547 88.3133 792.477C96.5625 789.273 104.068 790.547 110.021 796.167C119.074 804.712 122.105 820.974 120.306 826.533C120.265 826.658 120.172 826.758 120.051 826.806C119.991 826.83 116.362 828.254 111.573 828.117ZM88.9364 793.185C90.041 809.13 94.4645 819.643 102.088 824.437C109.702 829.227 118.149 826.548 119.526 826.058C121.129 820.504 118.119 805.028 109.414 796.809C103.719 791.434 96.83 790.215 88.9364 793.185Z" fill="black"/>
<path d="M162.554 911.543C162.362 911.537 162.188 911.405 162.138 911.209C162.099 911.054 158.1 895.491 148.275 874.394C139.21 854.929 123.191 826.638 98.3517 802.396C98.1763 802.226 98.1728 801.946 98.3437 801.771C98.5154 801.597 98.7945 801.594 98.969 801.764C123.911 826.105 139.99 854.504 149.086 874.04C158.942 895.209 162.956 910.836 162.996 910.992C163.055 911.228 162.912 911.469 162.675 911.529C162.635 911.539 162.594 911.544 162.554 911.543Z" fill="#1A1A1A"/>
<path d="M203.224 855.132C203.224 855.132 174.135 865.5 174.216 837.191C191.164 835.775 203.224 855.132 203.224 855.132Z" fill="#D94230"/>
<path d="M190.672 857.414C187.27 857.247 183.712 856.421 180.72 854.306C176.088 851.028 173.751 845.27 173.775 837.189C173.774 836.961 173.951 836.77 174.18 836.75C191.206 835.326 203.477 854.703 203.599 854.898C203.67 855.011 203.684 855.151 203.641 855.278C203.596 855.404 203.499 855.504 203.373 855.548C203.001 855.682 197.119 857.731 190.672 857.414ZM174.659 837.602C174.715 845.161 176.924 850.535 181.229 853.581C188.563 858.772 199.937 855.696 202.534 854.891C200.56 851.971 189.456 836.646 174.659 837.602Z" fill="black"/>
<path d="M203.224 855.132C203.224 855.132 194.881 830.514 220.217 824.643C225.005 845.504 203.224 855.132 203.224 855.132Z" fill="#D94230"/>
<path d="M203.202 855.574C203.149 855.572 203.096 855.559 203.046 855.538C202.932 855.487 202.845 855.392 202.805 855.275C202.651 854.82 199.095 844.046 204.163 834.947C207.149 829.586 212.517 825.973 220.119 824.211C220.233 824.185 220.353 824.205 220.453 824.267C220.552 824.329 220.623 824.429 220.649 824.543C223.166 835.512 218.333 843.363 213.834 848.018C208.982 853.037 203.628 855.437 203.403 855.536C203.339 855.566 203.27 855.578 203.202 855.574ZM219.884 825.176C212.769 826.913 207.742 830.342 204.938 835.372C200.646 843.072 202.875 852.324 203.498 854.511C204.896 853.818 209.284 851.46 213.218 847.382C219.416 840.958 221.658 833.488 219.884 825.176Z" fill="black"/>
<path d="M183.93 872.261C183.93 872.261 182.592 897.512 211.8 885.535C202.575 870.65 187.536 871.404 183.93 872.261Z" fill="#D94230"/>
<path d="M197.149 889.181C194.191 889.035 191.668 888.227 189.594 886.755C183.044 882.105 183.467 872.64 183.489 872.239C183.499 872.042 183.638 871.877 183.828 871.831C188.677 870.68 203.222 870.854 212.177 885.304C212.246 885.414 212.262 885.55 212.222 885.672C212.182 885.797 212.09 885.896 211.969 885.946C206.216 888.305 201.262 889.383 197.149 889.181ZM184.364 872.631C184.356 874.364 184.635 882.154 190.11 886.038C194.724 889.31 201.797 889.068 211.145 885.325C201.638 870.489 186.77 872.235 184.364 872.631Z" fill="black"/>
<path d="M211.801 885.536C211.801 885.536 206.81 860.922 226.009 855.679C237.258 874.796 211.801 885.536 211.801 885.536Z" fill="#D94230"/>
<path d="M211.779 885.98C211.715 885.977 211.653 885.959 211.595 885.928C211.477 885.866 211.394 885.755 211.368 885.626C211.356 885.564 210.117 879.313 211.268 872.501C212.808 863.41 217.863 857.445 225.893 855.254C226.085 855.198 226.288 855.283 226.39 855.455C229.358 860.5 230.076 865.436 228.522 870.128C225.159 880.282 212.51 885.718 211.973 885.945C211.911 885.971 211.844 885.983 211.779 885.98ZM225.798 856.198C209.162 861.011 211.569 881.282 212.14 884.898C214.555 883.762 224.822 878.492 227.683 869.847C229.122 865.499 228.488 860.908 225.798 856.198Z" fill="black"/>
<path d="M194.293 828.909C194.293 828.909 163.435 825.691 180.646 784.631C203.396 791.094 200.543 817.695 194.293 828.909Z" fill="#D94230"/>
<path d="M194.271 829.349C194.264 829.349 194.256 829.35 194.247 829.348C194.141 829.337 183.503 828.13 178.108 819.028C173.305 810.922 174.021 799.292 180.238 784.461C180.325 784.254 180.552 784.142 180.767 784.205C188.581 786.427 194.017 791.106 196.921 798.117C201.132 808.28 198.98 821.409 194.68 829.124C194.598 829.272 194.439 829.358 194.271 829.349ZM180.902 785.165C174.942 799.544 174.256 810.782 178.864 818.568C183.537 826.463 192.351 828.169 194.052 828.429C198.052 821.037 200.115 808.138 196.104 798.456C193.355 791.82 188.242 787.349 180.902 785.165Z" fill="black"/>
<path d="M217.272 911.177C217.072 911.167 216.898 911.022 216.859 910.817C207.579 860.589 188.176 814.335 187.981 813.873C187.886 813.648 187.991 813.388 188.217 813.293C188.442 813.197 188.701 813.304 188.796 813.528C188.991 813.991 208.429 860.331 217.728 910.655C217.772 910.895 217.614 911.127 217.374 911.171C217.34 911.177 217.305 911.178 217.272 911.177Z" fill="#1A1A1A"/>
<path d="M891.519 835.661C891.519 835.661 905.52 813.137 928.807 825.293C909.919 844.33 891.519 835.661 891.519 835.661Z" fill="#D94230"/>
<path d="M902.402 838.071C895.805 838.131 891.516 836.148 891.331 836.06C891.216 836.007 891.131 835.906 891.095 835.786C891.06 835.664 891.077 835.534 891.143 835.427C891.287 835.193 894.772 829.663 901.193 825.545C907.14 821.73 916.796 818.523 929.011 824.901C929.136 824.965 929.222 825.085 929.244 825.224C929.264 825.362 929.219 825.504 929.12 825.603C919.262 835.541 909.525 837.861 903.093 838.057C902.86 838.064 902.629 838.069 902.402 838.071ZM892.185 835.459C893.526 835.984 897.582 837.341 903.114 837.172C909.279 836.974 918.575 834.761 928.063 825.409C918.764 820.736 909.895 821.026 901.696 826.273C896.453 829.627 893.145 834.069 892.185 835.459Z" fill="black"/>
<path d="M910.643 804.802C910.643 804.802 945.544 802.211 955.483 778.732C935.364 772.419 909.814 785.32 910.643 804.802Z" fill="#D94230"/>
<path d="M910.647 805.245C910.538 805.246 910.432 805.206 910.35 805.133C910.26 805.053 910.206 804.942 910.201 804.822C909.876 797.162 913.559 789.979 920.572 784.597C930.281 777.145 944.036 774.677 955.616 778.311C955.734 778.348 955.832 778.434 955.884 778.547C955.936 778.659 955.94 778.79 955.891 778.905C950.695 791.18 938.663 797.69 929.486 800.988C919.576 804.55 910.763 805.237 910.676 805.244C910.666 805.244 910.656 805.245 910.647 805.245ZM944.352 777.587C936.041 777.663 927.533 780.369 921.111 785.297C914.475 790.39 910.924 797.129 911.071 804.319C915.182 803.901 945.542 800.117 954.882 779.011C951.535 778.018 947.961 777.554 944.352 777.587Z" fill="black"/>
<path d="M875.231 911.857C874.987 911.859 874.786 911.664 874.784 911.42C874.782 911.193 874.659 888.47 881.74 861.923C885.901 846.323 891.699 832.47 898.973 820.747C908.075 806.077 919.524 794.722 933.006 786.997C933.218 786.876 933.49 786.95 933.61 787.16C933.732 787.372 933.658 787.642 933.446 787.764C903.192 805.099 889.094 837.785 882.595 862.151C875.546 888.583 875.668 911.186 875.67 911.411C875.672 911.656 875.475 911.855 875.231 911.857Z" fill="#1A1A1A"/>
<path d="M905.87 892.287C905.87 892.287 883.338 889.823 890.325 862.713C900.526 866.334 907.769 885.345 905.87 892.287Z" fill="#D94230"/>
<path d="M905.872 892.728C905.855 892.729 905.839 892.728 905.821 892.726C905.461 892.687 896.953 891.679 891.971 884.472C888.245 879.081 887.548 871.724 889.897 862.604C889.929 862.483 890.007 862.381 890.118 862.323C890.227 862.264 890.357 862.255 890.473 862.296C901.165 866.091 908.165 885.569 906.296 892.403C906.242 892.596 906.068 892.727 905.872 892.728ZM890.632 863.303C888.497 871.937 889.188 878.885 892.692 883.961C896.857 889.994 903.832 891.504 905.534 891.789C906.264 888.35 904.969 882.271 902.234 876.442C899.116 869.791 894.91 865.038 890.632 863.303Z" fill="black"/>
<path d="M905.87 892.287C905.87 892.287 916.158 872.738 939.193 885.594C931.052 900.583 905.87 892.287 905.87 892.287Z" fill="#D94230"/>
<path d="M920.823 895.018C920.376 895.021 919.925 895.016 919.466 895.004C912.172 894.804 905.794 892.728 905.73 892.707C905.607 892.666 905.508 892.573 905.459 892.452C905.41 892.333 905.418 892.196 905.477 892.081C905.646 891.762 909.7 884.222 918.449 881.624C924.746 879.755 931.798 880.96 939.409 885.209C939.62 885.326 939.698 885.592 939.581 885.806C936.329 891.795 929.858 894.965 920.823 895.018ZM906.533 892.027C910.133 893.082 931.161 898.584 938.589 885.767C931.348 881.815 924.662 880.705 918.712 882.469C911.545 884.591 907.566 890.347 906.533 892.027Z" fill="black"/>
<path d="M910.895 870.889C910.895 870.889 907.913 833.701 941.075 837.726C946.76 864.978 910.895 870.889 910.895 870.889Z" fill="#D94230"/>
<path d="M910.897 871.331C910.799 871.332 910.701 871.298 910.623 871.237C910.524 871.161 910.463 871.047 910.454 870.925C910.439 870.745 909.132 852.858 919.217 843.176C924.462 838.14 931.836 836.157 941.129 837.287C941.317 837.31 941.469 837.45 941.507 837.635C942.956 844.575 941.859 850.765 938.249 856.033C930.002 868.065 911.156 871.294 910.966 871.325C910.943 871.329 910.92 871.331 910.897 871.331ZM936.058 837.864C929.355 837.904 923.912 839.896 919.831 843.812C910.972 852.313 911.179 867.447 911.308 870.362C914.292 869.772 930.223 866.18 937.521 855.528C940.935 850.547 942.006 844.694 940.706 838.127C939.095 837.944 937.546 837.855 936.058 837.864Z" fill="black"/>
<path d="M904.303 911.866L904.298 911.866C904.054 911.865 903.856 911.668 903.857 911.423C903.858 911.296 903.941 898.532 906.74 884.568C909.336 871.623 914.869 854.963 926.49 849.111C926.709 849 926.974 849.088 927.084 849.306C927.193 849.524 927.106 849.79 926.888 849.9C905.196 860.826 904.745 910.923 904.742 911.427C904.742 911.67 904.545 911.865 904.303 911.866Z" fill="#1A1A1A"/>
<path d="M913.945 776.04C913.945 776.04 892.867 779.792 887.133 801.825C899.833 803.958 913.055 795.744 913.945 776.04Z" fill="#D94230"/>
<path d="M891.058 802.601C889.742 802.599 888.405 802.487 887.06 802.261C886.937 802.24 886.828 802.168 886.761 802.065C886.694 801.961 886.673 801.833 886.705 801.712C892.444 779.661 913.652 775.643 913.866 775.605C913.998 775.582 914.134 775.62 914.235 775.708C914.336 775.797 914.391 775.926 914.385 776.06C913.841 788.093 908.897 794.522 904.845 797.796C900.934 800.957 896.143 802.607 891.058 802.601ZM887.687 801.464C893.81 802.369 899.686 800.828 904.289 797.109C909.782 792.671 912.95 785.586 913.472 776.596C910.167 777.379 892.923 782.341 887.687 801.464Z" fill="black"/>
<path d="M887.132 801.824C887.132 801.824 855.223 797.623 866.526 764.072C883.196 770.156 889.382 795.594 887.132 801.824Z" fill="#D94230"/>
<path d="M887.133 802.268C887.113 802.268 887.095 802.267 887.075 802.264C886.94 802.246 873.513 800.369 867.085 790.061C862.873 783.303 862.543 774.511 866.108 763.932C866.145 763.82 866.228 763.727 866.335 763.675C866.443 763.625 866.566 763.616 866.678 763.658C876.529 767.253 881.968 777.146 884.331 782.723C887.899 791.136 888.652 798.921 887.549 801.976C887.485 802.152 887.317 802.268 887.133 802.268ZM866.801 764.65C863.479 774.771 863.827 783.162 867.836 789.592C873.46 798.614 884.67 800.955 886.828 801.329C888.726 794.611 882.288 770.689 866.801 764.65Z" fill="black"/>
<path d="M895.907 766.423C895.907 766.423 880.648 728.144 918.993 720.719C925.774 754.509 895.907 766.423 895.907 766.423Z" fill="#D94230"/>
<path d="M895.906 766.864C895.848 766.864 895.789 766.851 895.732 766.828C895.625 766.782 895.54 766.696 895.496 766.586C895.426 766.408 888.482 748.614 895.955 734.939C900.094 727.362 907.817 722.433 918.908 720.286C919.145 720.24 919.378 720.393 919.426 720.631C922.966 738.268 916.428 749.894 910.318 756.542C903.708 763.734 896.146 766.802 896.071 766.832C896.018 766.853 895.963 766.864 895.906 766.864ZM918.644 721.239C908.058 723.377 900.687 728.125 896.732 735.359C890.094 747.5 895.168 763.07 896.16 765.832C897.813 765.088 904.098 762.013 909.691 755.917C915.598 749.478 921.917 738.252 918.644 721.239Z" fill="black"/>
<path d="M887.573 911.861C887.364 911.861 887.177 911.711 887.139 911.497C887.092 911.233 882.456 884.725 882.739 850.309C882.904 830.093 884.711 811.139 888.104 793.975C892.351 772.506 899.11 753.79 908.194 738.348C908.318 738.136 908.588 738.066 908.799 738.191C909.009 738.315 909.08 738.585 908.955 738.797C888.489 773.587 883.883 818.644 883.624 850.317C883.342 884.651 887.963 911.08 888.009 911.342C888.052 911.582 887.892 911.812 887.652 911.855C887.626 911.859 887.598 911.861 887.573 911.861Z" fill="#1A1A1A"/>
<path d="M856.347 823.965C856.347 823.965 884.409 820.938 883.12 849.774C870.33 848.767 858.911 839.345 856.347 823.965Z" fill="#D94230"/>
<path d="M883.121 850.217C883.108 850.217 883.097 850.216 883.086 850.215C869.261 849.126 858.341 838.606 855.911 824.038C855.891 823.918 855.922 823.794 855.995 823.698C856.069 823.601 856.178 823.539 856.3 823.526C856.425 823.512 868.881 822.265 876.876 829.775C881.704 834.309 883.954 841.045 883.563 849.795C883.557 849.915 883.503 850.027 883.413 850.106C883.331 850.178 883.228 850.217 883.121 850.217ZM856.867 824.368C859.354 838.121 869.652 848.058 882.697 849.294C882.979 841.038 880.818 834.689 876.27 830.419C869.436 824 859.173 824.226 856.867 824.368Z" fill="black"/>
<path d="M466.801 549.724L498.273 612.094H578.091L549.284 547.212L468.548 545.747L466.801 549.724Z" fill="#1C0311"/>
<path d="M578.09 612.315H498.272C498.188 612.315 498.112 612.268 498.074 612.195L466.602 549.824C466.573 549.764 466.571 549.696 466.597 549.636L468.344 545.658C468.38 545.576 468.45 545.534 468.551 545.526L549.286 546.991C549.372 546.992 549.448 547.044 549.484 547.123L578.292 612.005C578.322 612.074 578.315 612.152 578.275 612.215C578.234 612.278 578.165 612.315 578.09 612.315ZM498.408 611.873H577.75L549.137 547.431L468.69 545.97L467.043 549.718L498.408 611.873Z" fill="#1A1A1A"/>
<path d="M468.547 545.747L505.795 612.094H585.613L556.806 547.212L468.547 545.747Z" fill="white"/>
<path d="M585.613 612.537H505.795C505.635 612.537 505.488 612.45 505.41 612.311L468.161 545.962C468.083 545.825 468.086 545.656 468.167 545.52C468.248 545.384 468.396 545.299 468.554 545.304L556.812 546.77C556.985 546.773 557.139 546.876 557.209 547.033L586.019 611.914C586.079 612.052 586.065 612.21 585.984 612.336C585.903 612.461 585.763 612.537 585.613 612.537ZM506.055 611.652H584.933L556.516 547.65L469.309 546.201L506.055 611.652Z" fill="#1A1A1A"/>
<path d="M546.276 594.538C554.957 596.035 563.211 593.93 570.296 589.428L553.242 551.015L475.565 549.724L503.089 598.751C513.942 588.507 532.393 592.224 546.276 594.538Z" fill="white"/>
<path d="M503.09 599.193C503.068 599.193 503.045 599.192 503.023 599.188C502.889 599.167 502.771 599.086 502.704 598.967L475.18 549.94C475.102 549.802 475.105 549.634 475.186 549.498C475.268 549.362 475.426 549.287 475.573 549.282L553.248 550.573C553.42 550.576 553.575 550.679 553.645 550.836L570.701 589.248C570.789 589.449 570.718 589.683 570.533 589.801C562.948 594.621 554.535 596.409 546.205 594.974L544.197 594.637C530.551 592.332 513.57 589.466 503.393 599.073C503.31 599.151 503.202 599.193 503.09 599.193ZM476.329 550.179L503.202 598.047C513.734 588.596 530.685 591.458 544.343 593.765L546.35 594.102H546.352C554.345 595.479 562.424 593.804 569.737 589.257L552.951 551.452L476.329 550.179Z" fill="#1A1A1A"/>
<path d="M578.594 608.117L562.023 571.04C554.937 575.542 546.297 582.267 535.861 582.932C518.488 580.618 506.243 573.452 495.389 583.696L508.347 608.117H578.594Z" fill="#D94230"/>
<path d="M578.594 608.117L562.023 571.04C554.937 575.542 546.297 582.267 535.861 582.932C518.488 580.618 506.243 573.452 495.389 583.696L508.347 608.117H578.594Z" stroke="black"/>
<path d="M632.569 608.063H554.254C551.103 608.063 548.548 610.616 548.548 613.768C548.548 616.919 551.103 619.473 554.254 619.473H632.569C635.72 619.473 638.274 616.919 638.274 613.768C638.274 610.616 635.72 608.063 632.569 608.063Z" fill="white"/>
<path d="M634.424 619.917H552.399C550.032 619.917 548.107 617.99 548.107 615.623V611.914C548.107 609.546 550.032 607.62 552.399 607.62H634.424C636.792 607.62 638.717 609.546 638.717 611.914V615.623C638.717 617.99 636.792 619.917 634.424 619.917ZM552.399 608.504C550.52 608.504 548.99 610.034 548.99 611.914V615.623C548.99 617.503 550.52 619.031 552.399 619.031H634.424C636.304 619.031 637.833 617.503 637.833 615.623V611.914C637.833 610.034 636.304 608.504 634.424 608.504H552.399Z" fill="#1A1A1A"/>
<path d="M577.521 608.063H499.207C496.055 608.063 493.501 610.616 493.501 613.768C493.501 616.919 496.055 619.473 499.207 619.473H577.521C580.673 619.473 583.227 616.919 583.227 613.768C583.227 610.616 580.673 608.063 577.521 608.063Z" fill="white"/>
<path d="M579.375 619.917H497.353C494.985 619.917 493.058 617.99 493.058 615.623V611.914C493.058 609.546 494.985 607.62 497.353 607.62H579.375C581.743 607.62 583.671 609.546 583.671 611.914V615.623C583.671 617.99 581.743 619.917 579.375 619.917ZM497.353 608.504C495.473 608.504 493.944 610.034 493.944 611.914V615.623C493.944 617.503 495.473 619.031 497.353 619.031H579.375C581.256 619.031 582.785 617.503 582.785 615.623V611.914C582.785 610.034 581.256 608.504 579.375 608.504H497.353Z" fill="#1A1A1A"/>
</g>
<mask id="mask1_109_770" style="mask-type:luminance" maskUnits="userSpaceOnUse" x="-49" y="-84" width="1150" height="1150">
<path d="M-49 -84H1101V1066H-49V-84Z" fill="white"/>
</mask>
<g mask="url(#mask1_109_770)">
<path d="M790.883 870.266L792.401 911.854L726.809 910.57C726.809 910.57 752.68 886.926 774.974 886.652C777.726 872.08 777.176 870.266 777.176 870.266H790.883Z" fill="#1C0311"/>
<path d="M790.883 870.266L792.401 911.854L726.809 910.57C726.809 910.57 752.68 886.926 774.974 886.652C777.726 872.08 777.176 870.266 777.176 870.266H790.883Z" stroke="black" stroke-miterlimit="10"/>
<path d="M740.477 729.867L773.868 870.266L791.483 870.267C797.105 872.728 793.732 788.754 791.236 748.747C790.85 748.699 790.463 748.657 790.076 748.606C772.248 746.422 755.985 738.921 740.477 729.867Z" fill="white"/>
<path d="M740.477 729.867L773.868 870.266L791.483 870.267C797.105 872.728 793.732 788.754 791.236 748.747C790.85 748.699 790.463 748.657 790.076 748.606C772.248 746.422 755.985 738.921 740.477 729.867Z" stroke="black" stroke-miterlimit="10"/>
<path d="M732.56 696.846L740.477 729.867C755.984 738.921 772.248 746.422 790.076 748.606C790.463 748.658 790.849 748.698 791.236 748.746C790.682 739.877 790.17 733.11 789.808 729.837L732.56 696.846Z" fill="#1C0311"/>
<path d="M732.56 696.846L740.477 729.867C755.984 738.921 772.248 746.422 790.076 748.606C790.463 748.658 790.849 748.698 791.236 748.746C790.682 739.877 790.17 733.11 789.808 729.837L732.56 696.846Z" stroke="black" stroke-miterlimit="10"/>
<path d="M689.597 870.267L691.102 911.491L625.523 910.57C625.523 910.57 651.395 886.926 673.688 886.652C676.44 872.08 675.89 870.267 675.89 870.267H689.597Z" fill="#1C0311"/>
<path d="M689.597 870.267L691.102 911.491L625.523 910.57C625.523 910.57 651.395 886.926 673.688 886.652C676.44 872.08 675.89 870.267 675.89 870.267H689.597Z" stroke="black" stroke-miterlimit="10"/>
<path d="M827.241 641.861C827.241 641.861 902.625 810.604 692.649 714.588C706.167 775.625 697.151 832.449 690.174 874.006H673.66C673.66 874.006 615.025 694.812 657.962 668.969C700.898 643.126 747.24 651.437 747.24 651.437L827.241 641.861Z" fill="white"/>
<path d="M827.241 641.861C827.241 641.861 902.625 810.604 692.649 714.588C706.167 775.625 697.151 832.449 690.174 874.006H673.66C673.66 874.006 615.025 694.812 657.962 668.969C700.898 643.126 747.24 651.437 747.24 651.437L827.241 641.861Z" stroke="black" stroke-miterlimit="10"/>
<path d="M761.764 680.626C761.737 680.626 761.708 680.624 761.68 680.618C752.925 678.926 751.974 670.143 751.965 670.055C751.942 669.812 752.121 669.595 752.362 669.572C752.61 669.552 752.822 669.726 752.845 669.969C752.88 670.303 753.751 678.185 761.848 679.75C762.087 679.796 762.244 680.028 762.198 680.268C762.157 680.48 761.972 680.626 761.764 680.626Z" fill="#1A1A1A"/>
<path d="M690.94 473.327C690.94 473.327 685.444 504.139 697.953 514.265C707.852 522.309 714.752 514.758 714.752 514.758L726.238 524.661L741.965 515.696C741.965 515.696 726.744 500.569 729.277 489.538C731.81 478.506 698.508 455.979 690.94 473.327Z" fill="white"/>
<circle cx="698" cy="496" r="2" fill="black"/>
<path d="M726.33 525.092C726.198 525.12 726.056 525.087 725.949 524.995L714.77 515.355C713.284 516.71 706.604 521.864 697.674 514.608C685.106 504.435 690.278 474.518 690.505 473.248C690.512 473.215 690.522 473.182 690.535 473.15C693.239 466.95 699.659 464.998 708.145 467.797C719.036 471.388 731.372 482.39 729.708 489.636C727.259 500.301 742.127 515.233 742.277 515.382C742.374 515.479 742.423 515.618 742.405 515.755C742.386 515.89 742.306 516.011 742.185 516.081L726.457 525.045C726.417 525.068 726.374 525.083 726.33 525.092ZM714.661 514.324C714.793 514.297 714.933 514.327 715.043 514.423L726.29 524.121L741.247 515.595C738.778 513.039 726.494 499.689 728.847 489.437C730.258 483.286 719.279 472.399 707.868 468.637C703.175 467.09 694.802 465.663 691.366 473.454C691.124 474.874 686.303 504.266 698.231 513.92C707.699 521.615 714.157 514.754 714.426 514.459C714.491 514.387 714.574 514.343 714.661 514.324Z" fill="#1A1A1A"/>
<path d="M700.985 510.121C701.052 509.853 700.889 509.582 700.621 509.515C700.353 509.448 700.082 509.611 700.015 509.879L700.985 510.121ZM697 514C697.919 514 698.789 513.543 699.479 512.854C700.172 512.161 700.714 511.204 700.985 510.121L700.015 509.879C699.786 510.796 699.328 511.589 698.771 512.146C698.211 512.707 697.581 513 697 513V514Z" fill="#1A1A1A"/>
<path d="M677.97 469.539C677.97 469.539 687.757 490.319 711.313 486.248L710.974 500.374L714.362 500.59C714.362 500.59 712.87 493.412 717.903 495.902C722.934 498.393 722.889 502.712 722.889 502.712L732.042 502.4C732.042 502.4 738.611 475.949 730.184 466.311C721.757 456.671 677.97 469.539 677.97 469.539Z" fill="#1C0311"/>
<path d="M732.088 502.617C732.076 502.619 732.063 502.621 732.049 502.622L722.897 502.933C722.837 502.935 722.779 502.912 722.735 502.871C722.692 502.829 722.668 502.77 722.669 502.711C722.668 502.669 722.644 498.497 717.804 496.101C716.628 495.518 715.747 495.441 715.188 495.875C713.842 496.915 714.571 500.51 714.579 500.545C714.593 500.613 714.574 500.683 714.529 500.735C714.483 500.787 714.417 500.816 714.348 500.812L710.96 500.594C710.841 500.586 710.75 500.487 710.753 500.369L711.086 486.511C698.974 488.515 690.582 483.862 685.664 479.587C680.299 474.923 677.795 469.686 677.77 469.633C677.743 469.574 677.741 469.507 677.768 469.448C677.795 469.39 677.846 469.345 677.907 469.327C679.701 468.799 721.927 456.53 730.35 466.165C738.756 475.78 732.525 501.369 732.256 502.454C732.236 502.537 732.17 502.599 732.088 502.617ZM723.098 502.484L731.867 502.186C732.395 499.952 737.931 475.508 730.018 466.456C722.11 457.411 681.886 468.647 678.287 469.677C678.834 470.737 681.307 475.219 685.966 479.264C690.847 483.502 699.201 488.116 711.276 486.03C711.34 486.019 711.408 486.037 711.458 486.08C711.508 486.124 711.536 486.187 711.535 486.253L711.2 500.167L714.093 500.352C713.94 499.43 713.586 496.555 714.919 495.525C715.623 494.98 716.661 495.041 718.001 495.705C722.429 497.897 723.02 501.537 723.098 502.484Z" fill="#1A1A1A"/>
<path d="M714.153 514.884L720.149 507.796L718.945 518.371L714.153 514.884Z" fill="#1C0311"/>
<path d="M718.991 518.588C718.93 518.601 718.866 518.587 718.815 518.551L714.023 515.064C713.973 515.027 713.942 514.973 713.935 514.911C713.927 514.85 713.945 514.789 713.985 514.742L719.982 507.654C720.045 507.58 720.148 507.555 720.238 507.595C720.327 507.633 720.381 507.726 720.37 507.821L719.165 518.397C719.155 518.476 719.106 518.542 719.034 518.574C719.02 518.581 719.006 518.585 718.991 518.588ZM714.476 514.846L718.768 517.97L719.848 508.497L714.476 514.846Z" fill="#1A1A1A"/>
<path d="M750.359 643.248L743.795 650.295C743.795 650.295 782.406 675.139 804.15 673.215C825.893 671.29 833.726 660.338 833.726 660.338L829.472 643.248H751.579H750.359Z" fill="#1C0311"/>
<path d="M750.359 643.248L743.795 650.295C743.795 650.295 782.406 675.139 804.15 673.215C825.893 671.29 833.726 660.338 833.726 660.338L829.472 643.248H751.579H750.359Z" stroke="black" stroke-miterlimit="10"/>
<path d="M725.036 527.309L744.422 649.021C744.422 649.021 831.094 688.966 832.928 641.679C827.057 572.031 744.12 475.624 725.036 527.309Z" fill="#D94230"/>
<path d="M725.036 527.309L744.422 649.021C744.422 649.021 831.094 688.966 832.928 641.679C827.057 572.031 744.12 475.624 725.036 527.309Z" stroke="black" stroke-miterlimit="10"/>
<path d="M696.473 568.417C696.473 568.417 697.553 591.51 683.243 584.71C668.933 577.912 606.956 540.057 606.956 540.057L571.171 541.408C571.171 541.408 557.65 548.42 585.837 545.291C585.529 550.451 586.82 553.484 589.538 556.835C593.627 557.395 604.672 555.989 609.151 556.384C618.109 564.434 667.662 608.444 685.123 612.848C704.352 617.696 720.552 599.786 725.611 586.622L696.473 568.417Z" fill="white"/>
<path d="M696.473 568.417C696.473 568.417 697.553 591.51 683.243 584.71C668.933 577.912 606.956 540.057 606.956 540.057L571.171 541.408C571.171 541.408 557.65 548.42 585.837 545.291C585.529 550.451 586.82 553.484 589.538 556.835C593.627 557.395 604.672 555.989 609.151 556.384C618.109 564.434 667.662 608.444 685.123 612.848C704.352 617.696 720.552 599.786 725.611 586.622L696.473 568.417Z" stroke="black" stroke-miterlimit="10"/>
<path d="M732.43 516.2C732.43 516.2 699.514 526.164 694.215 570.074C712.757 601.014 726.436 594.934 726.436 594.934C726.436 594.934 740.472 567.86 747.002 555.263" fill="#D94230"/>
<path d="M732.43 516.2C732.43 516.2 699.514 526.164 694.215 570.074C712.757 601.014 726.436 594.934 726.436 594.934C726.436 594.934 740.472 567.86 747.002 555.263" stroke="black" stroke-miterlimit="10"/>
<path d="M351.919 710.081C326.297 673.873 287.864 671.391 287.864 671.391L253.231 655.748C253.231 655.748 219.609 706.112 247.747 727.879C275.886 749.644 315.323 749.277 315.323 749.277C304.117 786.085 297.724 835.976 292.226 888.295C297.284 891.329 301.603 892.559 303.752 888.496C303.752 888.496 324.438 844.915 335.626 819.647C337.855 814.611 339.707 810.304 340.944 807.212C340.945 807.21 377.542 746.289 351.919 710.081Z" fill="white"/>
<path d="M351.919 710.081C326.297 673.873 287.864 671.391 287.864 671.391L253.231 655.748C253.231 655.748 219.609 706.112 247.747 727.879C275.886 749.644 315.323 749.277 315.323 749.277C304.117 786.085 297.724 835.976 292.226 888.295C297.284 891.329 301.603 892.559 303.752 888.496C303.752 888.496 324.438 844.915 335.626 819.647C337.855 814.611 339.707 810.304 340.944 807.212C340.945 807.21 377.542 746.289 351.919 710.081Z" stroke="black" stroke-miterlimit="10"/>
<path d="M309.44 880.505C303.258 882.386 298.275 879.702 294.072 874.051C291.203 875.111 286.588 884.581 284.215 889.829C296.713 898.748 310.02 909.439 325.868 908.497C326.842 908.514 327.786 908.207 328.688 907.684C326.462 897.243 309.44 880.505 309.44 880.505Z" fill="white"/>
<path d="M309.44 880.505C303.258 882.386 298.275 879.702 294.072 874.051C291.203 875.111 286.588 884.581 284.215 889.829C296.713 898.748 310.02 909.439 325.868 908.497C326.842 908.514 327.786 908.207 328.688 907.684C326.462 897.243 309.44 880.505 309.44 880.505Z" stroke="black" stroke-miterlimit="10"/>
<path d="M284.215 889.828C283.285 891.886 282.698 893.295 282.698 893.295C282.698 893.295 323.205 921.351 328.232 912.639C329.009 911.292 329.096 909.593 328.688 907.684C327.785 908.208 326.842 908.514 325.869 908.497C310.021 909.438 296.713 898.747 284.215 889.828Z" fill="#1C0311"/>
<path d="M284.215 889.828C283.285 891.886 282.698 893.295 282.698 893.295C282.698 893.295 323.205 921.351 328.232 912.639C329.009 911.292 329.096 909.593 328.688 907.684C327.785 908.208 326.842 908.514 325.869 908.497C310.021 909.438 296.713 898.747 284.215 889.828Z" stroke="black" stroke-miterlimit="10"/>
<path d="M315.378 894.105C315.004 894.098 314.714 894.026 314.505 893.871C314.326 893.738 314.225 893.547 314.221 893.331C314.212 892.729 314.95 892.116 316.365 890.994C317.425 890.154 319.027 888.883 319.047 888.234C319.049 888.169 319.033 888.113 318.951 888.039C318.416 887.561 316.33 888.488 314.654 889.234C311.949 890.437 309.151 891.679 307.608 890.419C307.084 889.991 307.025 889.494 307.067 889.153C307.367 886.745 314.408 883.391 315.21 883.017C315.431 882.912 315.694 883.009 315.798 883.23C315.901 883.452 315.805 883.715 315.584 883.818C312.726 885.153 308.125 887.812 307.945 889.262C307.928 889.392 307.942 889.55 308.167 889.734C309.29 890.648 311.948 889.468 314.295 888.426C316.69 887.361 318.579 886.521 319.54 887.38C319.805 887.617 319.941 887.921 319.931 888.26C319.899 889.32 318.381 890.523 316.913 891.686C316.311 892.165 315.436 892.859 315.175 893.214C315.816 893.341 317.852 892.779 318.991 892.466C321.364 891.814 322.232 891.624 322.65 892.059C322.821 892.233 322.816 892.513 322.639 892.683C322.479 892.838 322.233 892.848 322.063 892.715C321.709 892.64 320.276 893.03 319.226 893.32C317.503 893.793 316.226 894.119 315.378 894.105Z" fill="#1A1A1A"/>
<path d="M296.614 750.086C301.626 755.425 355.402 745.505 358.436 737.152C353.279 724.39 355.109 728.92 355.109 728.92L292.885 736.364C292.885 736.364 294.248 749.316 296.614 750.086Z" fill="#1C0311"/>
<path d="M296.614 750.086C301.626 755.425 355.402 745.505 358.436 737.152C353.279 724.39 355.109 728.92 355.109 728.92L292.885 736.364C292.885 736.364 294.248 749.316 296.614 750.086Z" stroke="black" stroke-miterlimit="10"/>
<path d="M421.75 864.899C415.634 856.694 389.621 851.611 389.621 851.611C385.082 856.97 379.483 857.346 373.243 854.701C371.405 857.207 372.849 867.953 373.763 873.572C388.141 874.182 402.593 871.419 416.936 867.544C418.919 867.002 420.492 866.082 421.75 864.899Z" fill="white"/>
<path d="M421.75 864.899C415.634 856.694 389.621 851.611 389.621 851.611C385.082 856.97 379.483 857.346 373.243 854.701C371.405 857.207 372.849 867.953 373.763 873.572C388.141 874.182 402.593 871.419 416.936 867.544C418.919 867.002 420.492 866.082 421.75 864.899Z" stroke="black" stroke-miterlimit="10"/>
<path d="M421.75 864.899C420.492 866.082 418.92 867.002 416.937 867.545C402.594 871.419 388.142 874.182 373.764 873.572C374.102 875.649 374.367 877.027 374.367 877.027C374.367 877.027 423.628 878.096 423.018 868.057C422.951 866.959 422.5 865.906 421.75 864.899Z" fill="#1C0311"/>
<path d="M421.75 864.899C420.492 866.082 418.92 867.002 416.937 867.545C402.594 871.419 388.142 874.182 373.764 873.572C374.102 875.649 374.367 877.027 374.367 877.027C374.367 877.027 423.628 878.096 423.018 868.057C422.951 866.959 422.5 865.906 421.75 864.899Z" stroke="black" stroke-miterlimit="10"/>
<path d="M395.229 863.444C394.722 863.329 394.359 863.028 394.177 862.569C393.078 859.798 399.522 850.883 400.261 849.874C400.405 849.677 400.682 849.634 400.879 849.779C401.076 849.924 401.119 850.2 400.974 850.397C398.297 854.049 394.307 860.496 394.999 862.241C395.054 862.382 395.152 862.527 395.465 862.591C397.108 862.895 399.102 860.303 400.862 858.017C402.774 855.533 404.582 853.191 406.346 853.768C406.833 853.928 407.164 854.217 407.33 854.628C407.756 855.676 406.968 857.18 406.135 858.773C405.563 859.867 404.85 861.229 405.073 861.71C405.09 861.747 405.135 861.845 405.386 861.902C407.478 862.377 411.907 858.344 413.437 856.749C413.606 856.574 413.886 856.566 414.063 856.737C414.239 856.905 414.245 857.185 414.075 857.362C413.477 857.984 408.145 863.434 405.191 862.764C404.632 862.637 404.382 862.322 404.27 862.081C403.865 861.205 404.554 859.889 405.352 858.363C405.989 857.145 406.782 855.629 406.511 854.961C406.469 854.858 406.378 854.709 406.07 854.608C404.897 854.22 403.203 856.426 401.562 858.556C399.554 861.165 397.479 863.862 395.305 863.461C395.279 863.456 395.253 863.45 395.229 863.444Z" fill="#1A1A1A"/>
<path d="M309.047 658.658C309.047 658.658 312.875 676.561 324.755 678.778C352.199 683.899 403.302 685.376 402.181 724.044C400.499 782.065 389.563 850.075 389.563 850.075C389.563 850.075 387.488 860.14 373.85 855.63C360.798 822.404 352.612 762.621 357.478 738.461C324.145 743.09 282.488 758.474 238.444 735.582C215.599 712.696 246.665 658.784 246.665 658.784L309.047 658.658Z" fill="white"/>
<path d="M309.047 658.658C309.047 658.658 312.875 676.561 324.755 678.778C352.199 683.899 403.302 685.376 402.181 724.044C400.499 782.065 389.563 850.075 389.563 850.075C389.563 850.075 387.488 860.14 373.85 855.63C360.798 822.404 352.612 762.621 357.478 738.461C324.145 743.09 282.488 758.474 238.444 735.582C215.599 712.696 246.665 658.784 246.665 658.784L309.047 658.658Z" stroke="black" stroke-miterlimit="10"/>
<path d="M274.718 693.646C274.537 693.633 274.375 693.509 274.323 693.321C274.258 693.087 274.396 692.843 274.631 692.779C274.786 692.735 290.211 688.377 294.792 679.459C294.904 679.242 295.171 679.156 295.388 679.268C295.605 679.38 295.691 679.647 295.579 679.864C290.819 689.127 275.516 693.451 274.867 693.63C274.818 693.644 274.767 693.649 274.718 693.646Z" fill="#1A1A1A"/>
<path d="M274.749 693.204C274.749 693.204 290.459 688.86 295.186 679.662L274.749 693.204Z" fill="white"/>
<path d="M316.956 549.661L334.883 536.364C334.883 536.364 337.955 540.538 345.814 539.885C351.527 539.41 366.179 508.029 356.585 494.595C346.991 481.162 327.569 493.07 322.754 510.122C320.292 518.838 307.418 540.54 300.409 543.657C304.076 547.704 316.956 549.661 316.956 549.661Z" fill="white"/>
<path d="M352 533C350.333 533.667 348.5 532.5 348.5 530" stroke="#1A1A1A" stroke-linecap="round"/>
<path d="M316.992 550.102C316.958 550.105 316.923 550.103 316.889 550.099C316.357 550.017 303.812 548.07 300.082 543.953C299.987 543.848 299.948 543.704 299.978 543.566C300.007 543.427 300.101 543.31 300.231 543.252C306.919 540.277 319.765 519.084 322.329 510.002C325.335 499.355 334.346 490.151 343.289 488.592C348.77 487.643 353.618 489.679 356.946 494.338C363.129 502.997 359.563 518.5 354.631 529.144C352.308 534.159 348.615 540.096 345.852 540.325C339.08 540.888 335.76 537.986 334.815 536.965L317.219 550.017C317.152 550.067 317.074 550.095 316.992 550.102ZM301.157 543.776C304.887 547.138 315.337 548.949 316.841 549.195L334.62 536.008C334.714 535.938 334.832 535.91 334.949 535.926C335.066 535.945 335.17 536.007 335.239 536.102C335.267 536.14 338.287 540.067 345.778 539.444C347.681 539.286 350.992 534.898 353.829 528.773C359.043 517.518 361.807 502.666 356.227 494.853C352.228 489.254 347.067 488.831 343.44 489.464C334.81 490.967 326.1 499.899 323.18 510.243C320.89 518.352 308.515 539.699 301.157 543.776Z" fill="#1A1A1A"/>
<path d="M359.104 495.144C357.385 499.246 345.297 501.631 343.729 504.849C322.546 548.329 317.05 528.684 300.032 539.108C288.161 550.533 265.692 575.329 242.346 572.611C214.886 574.241 184.41 533.294 207.941 509.365C221.805 498.719 220.823 507.563 236.553 507.711C268.093 508.462 254.697 477.433 286.196 489.784C304.732 499.214 313.416 496.239 325.256 479.568C338.84 462.19 363.742 485.978 359.104 495.144Z" fill="#1C0311"/>
<path d="M248.627 572.922C246.535 573.097 244.432 573.075 242.32 572.829C227.418 573.718 210.45 561.842 202.891 545.207C196.764 531.723 198.547 518.602 207.783 509.209C216.618 502.422 219.547 503.461 224.401 505.183C227.23 506.185 230.751 507.434 236.554 507.49C251.292 507.843 256.14 501.204 260.417 495.348C265.264 488.711 269.45 482.98 286.276 489.577C304.287 498.74 312.986 496.463 325.077 479.44C330.808 472.107 339.579 471.135 348.543 476.831C356.632 481.97 361.658 490.567 359.304 495.235C358.344 497.507 354.474 499.205 350.73 500.846C347.588 502.221 344.621 503.521 343.927 504.945C329.485 534.589 322.201 535.012 313.768 535.502C309.739 535.739 305.572 535.98 300.168 539.284C299.064 540.347 297.862 541.53 296.589 542.784C285.472 553.741 267.607 571.345 248.627 572.922ZM218.247 504.387C215.745 504.595 212.766 505.938 208.076 509.54C198.997 518.776 197.246 531.715 203.293 545.024C210.782 561.502 227.564 573.266 242.332 572.389C263.429 574.84 283.993 554.577 296.279 542.47C297.56 541.208 298.768 540.017 299.879 538.947C299.89 538.937 299.903 538.927 299.917 538.919C305.425 535.545 309.653 535.298 313.742 535.061C322.038 534.577 329.202 534.162 343.53 504.75C344.295 503.181 347.335 501.85 350.552 500.439C354.22 498.833 358.014 497.17 358.9 495.058C358.901 495.053 358.904 495.047 358.906 495.043C361.131 490.645 356.079 482.142 348.307 477.203C339.554 471.642 331.002 472.577 325.431 479.704C319.092 488.629 313.965 493.11 308.296 494.677C302.403 496.304 295.765 494.899 286.095 489.98C269.606 483.515 265.514 489.12 260.773 495.609C256.899 500.915 252.561 506.853 241.025 507.813C239.64 507.928 238.151 507.97 236.547 507.932C230.673 507.875 227.113 506.614 224.253 505.6C222.104 504.839 220.343 504.213 218.247 504.387Z" fill="#1A1A1A"/>
<path d="M246.923 655.689C246.923 655.689 246.191 660.293 243.82 664.384C248.166 665.696 265.332 663.697 276.696 662.71C306.997 660.076 310.219 658.873 310.219 658.873L308.463 649.714L246.923 655.689Z" fill="#1C0311"/>
<path d="M246.923 655.689C246.923 655.689 246.191 660.293 243.82 664.384C248.166 665.696 265.332 663.697 276.696 662.71C306.997 660.076 310.219 658.873 310.219 658.873L308.463 649.714L246.923 655.689Z" stroke="black" stroke-miterlimit="10"/>
<path d="M246.071 659.446C252.086 634.54 267.05 620.532 271.461 599C275.595 578.813 268.465 550.738 293.904 538.005L314.906 534.597C314.906 534.597 334.561 554.727 333.152 578.345C324.551 629.337 308.881 652.697 308.881 652.697C308.881 652.697 301.184 658.099 246.071 659.446Z" fill="#D94230"/>
<path d="M246.071 659.446C252.086 634.54 267.05 620.532 271.461 599C275.595 578.813 268.465 550.738 293.904 538.005L314.906 534.597C314.906 534.597 334.561 554.727 333.152 578.345C324.551 629.337 308.881 652.697 308.881 652.697C308.881 652.697 301.184 658.099 246.071 659.446Z" stroke="black" stroke-miterlimit="10"/>
<path d="M292.839 538.55C292.839 538.55 322.948 549.473 327.349 552.981C320.715 539.407 313.591 530.669 308.727 530.743C303.862 530.817 292.839 538.55 292.839 538.55Z" fill="white"/>
<path d="M292.839 538.55C292.839 538.55 322.948 549.473 327.349 552.981C320.715 539.407 313.591 530.669 308.727 530.743C303.862 530.817 292.839 538.55 292.839 538.55Z" stroke="black" stroke-miterlimit="10"/>
<path d="M432.234 583.867L452.213 610.663L454.313 610.44L434.657 582.396L432.234 583.867Z" fill="#1C0311"/>
<path d="M432.234 583.867L452.213 610.663L454.313 610.44L434.657 582.396L432.234 583.867Z" stroke="black" stroke-miterlimit="10"/>
<path d="M424.405 598.532C424.405 598.532 444.76 587.548 449.833 592.473C454.906 597.398 458.684 604.432 457.681 604.993C456.678 605.554 428.064 610.404 426.603 609.496C425.141 608.589 424.405 598.532 424.405 598.532Z" fill="white"/>
<path d="M424.405 598.532C424.405 598.532 444.76 587.548 449.833 592.473C454.906 597.398 458.684 604.432 457.681 604.993C456.678 605.554 428.064 610.404 426.603 609.496C425.141 608.589 424.405 598.532 424.405 598.532Z" stroke="black" stroke-miterlimit="10"/>
<path d="M281.746 566.452C281.746 566.452 317.169 625.368 390.679 614.412C418.645 613.435 433.618 609.959 433.618 609.959C433.618 609.959 426.764 598.123 423.527 597.632C402.74 597.09 373.13 593.983 357.57 584.99C333.046 570.817 328.388 558.457 327.539 555.023" fill="#D94230"/>
<path d="M281.746 566.452C281.746 566.452 317.169 625.368 390.679 614.412C418.645 613.435 433.618 609.959 433.618 609.959C433.618 609.959 426.764 598.123 423.527 597.632C402.74 597.09 373.13 593.983 357.57 584.99C333.046 570.817 328.388 558.457 327.539 555.023" stroke="black" stroke-miterlimit="10"/>
<path d="M668.64 500.205L653.369 468.622C657.058 463.802 659.253 457.778 659.253 451.241V440.435C659.253 424.62 646.433 411.8 630.617 411.8H511.01C495.194 411.8 482.374 424.62 482.374 440.435V451.241C482.374 467.056 495.194 479.877 511.01 479.877H630.617C631.077 479.877 631.533 479.863 631.987 479.842L668.64 500.205Z" fill="white"/>
<path d="M668.64 500.649C668.567 500.649 668.495 500.629 668.427 500.592L631.883 480.29C631.43 480.31 631.015 480.319 630.618 480.319H511.011C494.977 480.319 481.933 467.276 481.933 451.242V440.436C481.933 424.403 494.977 411.359 511.011 411.359H630.618C646.652 411.359 659.696 424.403 659.696 440.436V451.242C659.696 457.589 657.687 463.61 653.887 468.674L669.04 500.013C669.123 500.187 669.086 500.395 668.945 500.527C668.862 500.606 668.751 500.649 668.64 500.649ZM631.988 479.4C632.063 479.4 632.136 479.42 632.203 479.456L667.636 499.142L652.972 468.816C652.9 468.665 652.919 468.487 653.019 468.355C656.809 463.401 658.812 457.483 658.812 451.242V440.436C658.812 424.89 646.164 412.242 630.618 412.242H511.011C495.465 412.242 482.818 424.89 482.818 440.436V451.242C482.818 466.788 495.465 479.436 511.011 479.436H630.618C631.038 479.436 631.478 479.424 631.967 479.4C631.973 479.4 631.981 479.4 631.988 479.4Z" fill="#1A1A1A"/>
<path d="M532.47 401.965C532.47 401.965 571.097 402.725 574.747 412.459C574.747 464.774 575.508 464.774 575.508 464.774C575.508 464.774 555.586 457.17 532.47 461.429V401.965Z" fill="#1C0311"/>
<path d="M575.507 464.995C575.467 464.995 575.43 464.995 575.393 464.969C574.433 464.613 554.84 457.531 532.509 461.646C532.445 461.659 532.378 461.641 532.327 461.599C532.277 461.557 532.247 461.495 532.247 461.429V401.966C532.247 401.906 532.272 401.849 532.314 401.808C532.357 401.766 532.409 401.746 532.474 401.745C534.057 401.776 571.294 402.62 574.955 412.381C574.963 412.407 574.968 412.433 574.968 412.459C574.968 460.362 575.606 464.341 575.699 464.665C575.724 464.709 575.735 464.761 575.725 464.814C575.706 464.919 575.614 464.995 575.507 464.995ZM546.912 459.923C561.638 459.923 573.07 463.68 575.223 464.437C575.115 463.713 575.018 462.053 574.907 458.242C574.733 452.276 574.526 439.5 574.526 412.5C571.033 403.433 535.861 402.277 532.69 402.192V461.164C537.624 460.273 542.42 459.923 546.912 459.923Z" fill="#1A1A1A"/>
<path d="M618.546 401.965C618.546 401.965 579.918 402.725 576.268 412.459C576.268 464.774 575.508 464.774 575.508 464.774C575.508 464.774 595.43 457.17 618.546 461.429V401.965Z" fill="#1C0311"/>
<path d="M575.507 464.996C575.4 464.996 575.31 464.92 575.29 464.815C575.28 464.763 575.291 464.709 575.316 464.665C575.409 464.342 576.047 460.362 576.047 412.46C576.047 412.433 576.052 412.407 576.061 412.381C579.721 402.62 616.958 401.776 618.542 401.745C618.599 401.745 618.658 401.766 618.701 401.808C618.744 401.85 618.767 401.906 618.767 401.966V461.43C618.767 461.495 618.738 461.557 618.687 461.599C618.636 461.641 618.571 461.658 618.507 461.647C596.176 457.532 576.582 464.612 575.622 464.969C575.586 464.996 575.548 464.996 575.507 464.996ZM576.49 412.5C576.49 439.5 576.282 452.276 576.109 458.242C575.997 462.053 575.901 463.713 575.792 464.438C578.601 463.45 597.217 457.355 618.325 461.164V402.193C615.154 402.277 579.983 403.433 576.49 412.5Z" fill="#1A1A1A"/>
<path d="M532.47 397.099C532.47 397.099 571.858 397.922 575.508 407.656V459.908C575.508 459.908 555.586 452.303 532.47 456.562V397.099Z" fill="white"/>
<path d="M575.508 460.349C575.455 460.349 575.4 460.34 575.35 460.321C575.152 460.245 555.269 452.811 532.549 456.996C532.42 457.02 532.287 456.986 532.186 456.901C532.084 456.817 532.027 456.692 532.027 456.562V397.099C532.027 396.98 532.074 396.866 532.159 396.782C532.245 396.7 532.353 396.661 532.477 396.657C534.099 396.69 572.209 397.6 575.922 407.499C575.941 407.549 575.951 407.602 575.951 407.656V459.908C575.951 460.053 575.877 460.188 575.758 460.272C575.683 460.324 575.597 460.349 575.508 460.349ZM546.909 454.836C561.204 454.836 572.405 458.368 575.066 459.281V407.738C571.604 399.008 537.27 397.685 532.912 397.553V456.033C537.765 455.174 542.485 454.836 546.909 454.836Z" fill="#1A1A1A"/>
<path d="M618.546 397.099C618.546 397.099 579.157 397.922 575.508 407.656V459.908C575.508 459.908 595.43 452.303 618.546 456.562V397.099Z" fill="white"/>
<path d="M575.508 460.349C575.419 460.349 575.331 460.324 575.256 460.272C575.137 460.188 575.066 460.053 575.066 459.908V407.656C575.066 407.602 575.075 407.549 575.094 407.499C578.806 397.6 616.918 396.69 618.538 396.657C618.657 396.658 618.772 396.7 618.857 396.782C618.941 396.866 618.99 396.98 618.99 397.099V456.562C618.99 456.692 618.932 456.817 618.83 456.901C618.73 456.985 618.596 457.019 618.468 456.996C595.748 452.811 575.864 460.245 575.666 460.321C575.614 460.34 575.561 460.349 575.508 460.349ZM575.951 407.738V459.281C579.432 458.085 597.566 452.399 618.105 456.033V397.553C613.746 397.685 579.413 399.009 575.951 407.738Z" fill="#1A1A1A"/>
<path d="M582.346 414.488C582.346 414.488 595.45 408.629 614.085 409.402" stroke="black" stroke-miterlimit="10"/>
<path d="M582.346 414.488C582.346 414.488 595.45 408.629 614.085 409.402" stroke="black" stroke-miterlimit="10"/>
<path d="M582.346 432.342C582.346 432.342 595.45 426.483 614.085 427.256" stroke="black" stroke-miterlimit="10"/>
<path d="M582.346 423.381C582.346 423.381 595.45 417.522 614.085 418.295" stroke="black" stroke-miterlimit="10"/>
<path d="M582.346 441.304C582.346 441.304 595.45 435.444 614.085 436.218" stroke="black" stroke-miterlimit="10"/>
<path d="M568.831 441.37C552.815 435.241 536.93 436.202 536.93 436.202" stroke="black" stroke-miterlimit="10"/>
<path d="M568.831 432.166C552.815 426.037 536.93 426.999 536.93 426.999" stroke="black" stroke-miterlimit="10"/>
<path d="M568.831 423.314C552.815 417.185 536.93 418.146 536.93 418.146" stroke="black" stroke-miterlimit="10"/>
<path d="M568.831 414.57C552.815 408.441 536.93 409.403 536.93 409.403" stroke="black" stroke-miterlimit="10"/>
<path d="M850.389 750.702C850.389 744.553 845.398 739.569 839.242 739.569H761.506C755.349 739.569 750.358 744.553 750.358 750.702C750.358 752.392 750.745 753.988 751.421 755.421H849.327C850.002 753.988 850.389 752.392 850.389 750.702Z" fill="white"/>
<path d="M849.326 755.864H751.419C751.248 755.864 751.092 755.765 751.019 755.609C750.286 754.05 749.916 752.4 749.916 750.702C749.916 744.318 755.116 739.125 761.507 739.125H839.243C845.633 739.125 850.831 744.318 850.831 750.702C850.831 752.401 850.46 754.051 849.728 755.609C849.655 755.765 849.498 755.864 849.326 755.864ZM751.705 754.98H849.042C849.642 753.614 849.947 752.177 849.947 750.702C849.947 744.807 845.145 740.01 839.243 740.01H761.507C755.602 740.01 750.8 744.807 750.8 750.702C750.8 752.177 751.105 753.614 751.705 754.98Z" fill="#1A1A1A"/>
<path d="M751.421 755.421C753.2 759.208 757.04 761.836 761.505 761.836H839.242C843.707 761.836 847.548 759.208 849.326 755.421H751.421Z" fill="#1C0311"/>
<path d="M839.243 762.058H761.506C757.125 762.058 753.088 759.49 751.221 755.516C751.188 755.448 751.194 755.368 751.234 755.304C751.274 755.24 751.345 755.201 751.42 755.201H849.327C849.403 755.201 849.473 755.24 849.513 755.304C849.554 755.368 849.559 755.448 849.528 755.516C847.66 759.49 843.623 762.058 839.243 762.058ZM751.775 755.644C753.631 759.283 757.413 761.615 761.506 761.615H839.243C843.335 761.615 847.116 759.283 848.973 755.644H751.775Z" fill="#1A1A1A"/>
<path d="M806.483 911.853H798.515V761.837H806.483V911.853Z" fill="#1C0311"/>
<path d="M806.483 912.073H798.514C798.391 912.073 798.292 911.976 798.292 911.853V761.836C798.292 761.714 798.391 761.615 798.514 761.615H806.483C806.606 761.615 806.704 761.714 806.704 761.836V911.853C806.704 911.976 806.606 912.073 806.483 912.073ZM798.735 911.633H806.262V762.058H798.735V911.633Z" fill="#1A1A1A"/>
<path d="M307.95 750.702C307.95 744.553 302.959 739.569 296.803 739.569H219.066C212.911 739.569 207.92 744.553 207.92 750.702C207.92 752.392 208.307 753.988 208.981 755.421H306.889C307.562 753.988 307.95 752.392 307.95 750.702Z" fill="white"/>
<path d="M306.888 755.864H208.98C208.809 755.864 208.654 755.765 208.581 755.609C207.848 754.051 207.477 752.401 207.477 750.702C207.477 744.318 212.676 739.125 219.066 739.125H296.802C303.192 739.125 308.392 744.318 308.392 750.702C308.392 752.401 308.021 754.051 307.289 755.609C307.215 755.765 307.059 755.864 306.888 755.864ZM209.266 754.98H306.603C307.203 753.614 307.508 752.177 307.508 750.702C307.508 744.807 302.704 740.01 296.802 740.01H219.066C213.163 740.01 208.361 744.807 208.361 750.702C208.361 752.177 208.666 753.614 209.266 754.98Z" fill="#1A1A1A"/>
<path d="M208.981 755.421C210.761 759.208 214.602 761.836 219.066 761.836H296.803C301.268 761.836 305.109 759.208 306.889 755.421H208.981Z" fill="#1C0311"/>
<path d="M296.804 762.058H219.066C214.685 762.058 210.649 759.49 208.78 755.516C208.749 755.448 208.754 755.368 208.795 755.304C208.835 755.24 208.905 755.201 208.98 755.201H306.888C306.963 755.201 307.034 755.24 307.075 755.304C307.115 755.368 307.121 755.448 307.088 755.516C305.22 759.49 301.185 762.058 296.804 762.058ZM209.336 755.644C211.192 759.283 214.973 761.615 219.066 761.615H296.804C300.897 761.615 304.677 759.283 306.533 755.644H209.336Z" fill="#1A1A1A"/>
<path d="M264.044 911.853H256.075V761.837H264.044V911.853Z" fill="#1C0311"/>
<path d="M264.044 912.073H256.074C255.952 912.073 255.854 911.976 255.854 911.853V761.836C255.854 761.714 255.952 761.615 256.074 761.615H264.044C264.166 761.615 264.265 761.714 264.265 761.836V911.853C264.265 911.976 264.166 912.073 264.044 912.073ZM256.295 911.633H263.822V762.058H256.295V911.633Z" fill="#1A1A1A"/>
</g>
</svg>
