<svg width="1076" height="1011" viewBox="0 0 1076 1011" fill="none" xmlns="http://www.w3.org/2000/svg">
<g clip-path="url(#clip0_121_4214)">
<mask id="mask0_121_4214" style="mask-type:luminance" maskUnits="userSpaceOnUse" x="-12" y="-20" width="1088" height="1088">
<path d="M-12 -20H1076V1068H-12V-20Z" fill="white"/>
</mask>
<g mask="url(#mask0_121_4214)">
<mask id="mask1_121_4214" style="mask-type:luminance" maskUnits="userSpaceOnUse" x="42" y="143" width="980" height="980">
<path d="M1021.6 143.2H42.4V1122.4H1021.6V143.2Z" fill="white"/>
</mask>
<g mask="url(#mask1_121_4214)">
<path d="M111.03 745.059C111.03 745.059 160.164 693.462 214.269 751.482C187.726 779.15 122.167 760.454 111.03 745.059Z" fill="#D94230"/>
<path d="M111.03 745.059C111.03 745.059 160.164 693.462 214.269 751.482C187.726 779.15 122.167 760.454 111.03 745.059Z" stroke="black" stroke-width="1.8" stroke-linecap="round" stroke-linejoin="round"/>
<path d="M202.387 719.543C202.387 719.543 161.488 717.23 154.226 667.71C146.964 618.19 185.424 585.888 185.424 585.888C185.424 585.888 215.375 690.961 202.387 719.543Z" fill="white"/>
<path d="M202.387 719.543C202.387 719.543 161.488 717.23 154.226 667.71C146.964 618.19 185.424 585.888 185.424 585.888C185.424 585.888 215.375 690.961 202.387 719.543Z" stroke="#1A1A1A" stroke-width="1.8" stroke-linecap="round" stroke-linejoin="round"/>
<path d="M230.89 734.851C230.89 734.851 298.304 675.869 251.41 612.054C209.847 667.866 208.094 719.997 230.89 734.851Z" fill="#D94230"/>
<path d="M230.89 734.851C230.89 734.851 298.304 675.869 251.41 612.054C209.847 667.866 208.094 719.997 230.89 734.851Z" stroke="black" stroke-width="1.8" stroke-linecap="round" stroke-linejoin="round"/>
<path d="M251.41 612.054C251.41 612.054 225.17 727.269 229.144 759.1" stroke="#1A1A1A" stroke-width="1.8" stroke-linecap="round" stroke-linejoin="round"/>
<path d="M111.03 745.059C112.266 744.735 218.357 745.39 226.944 756.438" stroke="#1A1A1A" stroke-width="1.8" stroke-linecap="round" stroke-linejoin="round"/>
<path d="M185.424 585.887C185.424 585.887 177.818 632.803 177.93 640.088C179.077 714.711 260.798 796.278 260.798 796.278" stroke="#1A1A1A" stroke-width="1.8" stroke-linecap="round" stroke-linejoin="round"/>
<path d="M509.861 714.011C509.861 714.011 276.377 704.164 209.851 773.631C310.757 773.631 455.223 790.5 457.446 790.5C459.668 790.5 533.754 743.088 533.754 743.088L509.861 714.011Z" fill="#1C0311"/>
<path d="M509.861 714.011C509.861 714.011 276.377 704.164 209.851 773.631C310.757 773.631 455.223 790.5 457.446 790.5C459.668 790.5 533.754 743.088 533.754 743.088L509.861 714.011Z" stroke="#1A1A1A" stroke-width="0.9" stroke-linecap="round" stroke-linejoin="round"/>
<path d="M838.405 780.359C837.929 771.322 834.077 715.023 788.881 681.453C742.251 646.819 670.749 650.592 617.509 694.644C615.45 692.13 584.766 655.757 546 661.214C506.444 666.782 471.692 714.044 480.463 771.495C599.777 774.45 719.091 777.404 838.405 780.359Z" fill="white"/>
<path d="M838.405 780.359C837.929 771.322 834.077 715.023 788.881 681.453C742.251 646.819 670.749 650.592 617.509 694.644C615.45 692.13 584.766 655.757 546 661.214C506.444 666.782 471.692 714.044 480.463 771.495C599.777 774.45 719.091 777.404 838.405 780.359Z" stroke="#1A1A1A" stroke-width="1.8" stroke-linecap="round" stroke-linejoin="round"/>
<path d="M554.814 759.386C554.814 759.386 960.429 759.386 955.985 817.17C951.54 874.955 533.891 851.618 533.891 851.618C533.891 851.618 497.754 953.851 360.149 939.406C222.543 924.96 271.439 861.619 271.439 861.619C271.439 861.619 224.765 854.952 173.646 839.395C122.528 823.837 135.127 771.609 286.629 763.831C438.131 756.052 554.814 759.386 554.814 759.386Z" fill="white"/>
<path d="M554.814 759.386C554.814 759.386 960.429 759.386 955.985 817.17C951.54 874.955 533.891 851.618 533.891 851.618C533.891 851.618 497.754 953.851 360.149 939.405C222.543 924.96 271.439 861.619 271.439 861.619C271.439 861.619 224.765 854.952 173.646 839.395C122.528 823.837 135.127 771.609 286.629 763.831C438.131 756.052 554.814 759.386 554.814 759.386Z" stroke="#1A1A1A" stroke-width="1.8" stroke-linecap="round" stroke-linejoin="round"/>
<path d="M754.735 830.874L744.435 805.132L749.218 709.94L756.129 743.694L754.735 830.874Z" fill="#1C0311"/>
<path d="M754.735 830.874L744.435 805.132L749.218 709.94L756.129 743.694L754.735 830.874Z" stroke="#1A1A1A" stroke-width="0.9" stroke-linecap="round" stroke-linejoin="round"/>
<path d="M754.736 830.873H870.984V741.116H754.736V830.873Z" fill="white"/>
<path d="M754.736 830.873H870.984V741.116H754.736V830.873Z" stroke="#1A1A1A" stroke-width="1.8" stroke-linecap="round" stroke-linejoin="round"/>
<path d="M870.984 741.116L849.647 768.337H769.451L754.736 741.116" fill="white"/>
<path d="M870.984 741.116L849.647 768.337H769.451L754.736 741.116" stroke="#1A1A1A" stroke-width="1.8" stroke-linecap="round" stroke-linejoin="round"/>
<path d="M870.984 741.116L848.359 709.94H749.218L754.736 741.116H870.984Z" fill="#1C0311"/>
<path d="M870.984 741.116L848.359 709.94H749.218L754.736 741.116H870.984Z" stroke="#1A1A1A" stroke-width="0.9" stroke-linecap="round" stroke-linejoin="round"/>
<path d="M749.218 709.94L734.135 735.599V760.153L754.736 741.117L749.218 709.94Z" fill="white"/>
<path d="M749.218 709.94L734.135 735.599V760.153L754.736 741.117L749.218 709.94Z" stroke="#1A1A1A" stroke-width="1.8" stroke-linecap="round" stroke-linejoin="round"/>
<path d="M873.466 721.804L848.358 709.94L870.983 741.117L893.331 748.841L873.466 721.804Z" fill="white"/>
<path d="M873.466 721.804L848.358 709.94L870.983 741.117L893.331 748.841L873.466 721.804Z" stroke="#1A1A1A" stroke-width="1.8" stroke-linecap="round" stroke-linejoin="round"/>
<path d="M227.411 552.697C227.411 538.991 238.522 527.879 252.229 527.879C265.937 527.879 277.048 538.991 277.048 552.697C277.048 566.404 265.937 577.515 252.229 577.515C238.522 577.515 227.411 566.404 227.411 552.697Z" fill="#1C0311"/>
<path d="M227.411 552.697C227.411 538.991 238.522 527.879 252.229 527.879C265.937 527.879 277.048 538.991 277.048 552.697C277.048 566.404 265.937 577.515 252.229 577.515C238.522 577.515 227.411 566.404 227.411 552.697Z" stroke="#1A1A1A" stroke-width="0.9" stroke-linecap="round" stroke-linejoin="round"/>
<path d="M496.668 675.016C496.668 665.275 504.564 657.38 514.305 657.38C524.046 657.38 531.942 665.275 531.942 675.016C531.942 684.756 524.046 692.651 514.305 692.651C504.564 692.651 496.668 684.756 496.668 675.016Z" fill="#1C0311"/>
<path d="M496.668 675.016C496.668 665.275 504.564 657.38 514.305 657.38C524.046 657.38 531.942 665.275 531.942 675.016C531.942 684.756 524.046 692.651 514.305 692.651C504.564 692.651 496.668 684.756 496.668 675.016Z" stroke="#1A1A1A" stroke-width="0.9" stroke-linecap="round" stroke-linejoin="round"/>
<path d="M865.364 663.457C865.364 657.074 870.539 651.898 876.923 651.898C883.307 651.898 888.483 657.074 888.483 663.457C888.483 669.841 883.307 675.016 876.923 675.016C870.539 675.016 865.364 669.841 865.364 663.457Z" fill="#D94230"/>
<path d="M865.364 663.457C865.364 657.074 870.539 651.898 876.923 651.898C883.307 651.898 888.483 657.074 888.483 663.457C888.483 669.841 883.307 675.016 876.923 675.016C870.539 675.016 865.364 669.841 865.364 663.457Z" stroke="black" stroke-width="1.8" stroke-linecap="round" stroke-linejoin="round"/>
<path d="M669.64 615.023C671.118 623.283 675.255 647.767 668.588 666.024C655.237 702.579 680.512 777.64 746.859 767.287" stroke="#1A1A1A" stroke-width="1.8" stroke-linecap="round" stroke-linejoin="round" stroke-dasharray="10.31 10.31"/>
<path d="M631.315 616.595C636.738 626.275 642.809 649.787 625.379 666.023C554.855 731.721 676.024 764.583 747.271 750.834" stroke="#1A1A1A" stroke-width="1.8" stroke-linecap="round" stroke-linejoin="round" stroke-dasharray="10.7 10.7"/>
</g>
<mask id="mask2_121_4214" style="mask-type:luminance" maskUnits="userSpaceOnUse" x="42" y="143" width="980" height="980">
<path d="M1021.6 143.2H42.4V1122.4H1021.6V143.2Z" fill="white"/>
</mask>
<g mask="url(#mask2_121_4214)">
<path d="M554.116 613.923H877.393C899.38 613.923 917.204 596.1 917.204 574.112V415.134C917.204 393.146 899.38 375.322 877.393 375.322H554.116C532.129 375.322 514.305 393.146 514.305 415.134V574.112C514.305 596.1 532.129 613.923 554.116 613.923Z" fill="white"/>
<path d="M554.116 613.923H877.393C899.38 613.923 917.204 596.1 917.204 574.112V415.134C917.204 393.146 899.38 375.322 877.393 375.322H554.116C532.129 375.322 514.305 393.146 514.305 415.134V574.112C514.305 596.1 532.129 613.923 554.116 613.923Z" stroke="#1A1A1A" stroke-width="1.8" stroke-linecap="round" stroke-linejoin="round"/>
<path d="M528.081 543.687C528.081 556.37 538.365 566.652 551.049 566.652C563.732 566.652 574.015 556.37 574.015 543.687C574.015 531.004 563.732 520.721 551.049 520.721C538.365 520.721 528.081 531.004 528.081 543.687Z" fill="white"/>
<path d="M528.081 470.265C528.081 482.948 538.365 493.23 551.049 493.23C563.732 493.23 574.015 482.948 574.015 470.265C574.015 457.582 563.732 447.299 551.049 447.299C538.365 447.299 528.081 457.582 528.081 470.265Z" fill="white"/>
<path d="M590.08 544.853L589.327 544.842V548.298C589.327 556.736 596.086 563.6 604.489 563.756C608.64 563.684 612.392 561.969 615.125 559.236C617.927 556.435 619.657 552.569 619.657 548.298V545.658H733.408V544.822L734.161 544.837L734.137 371.849C734.137 363.306 727.211 356.38 718.668 356.38H574.041C582.584 356.38 590.056 363.348 590.056 371.89L590.08 544.853Z" fill="white"/>
<path d="M590.08 544.853L589.327 544.842V548.298C589.327 556.736 596.086 563.6 604.489 563.756C608.64 563.684 612.392 561.969 615.125 559.236C617.927 556.435 619.657 552.569 619.657 548.298V545.658H733.408V544.822L734.161 544.837L734.137 371.849C734.137 363.306 727.211 356.38 718.668 356.38H574.041C582.584 356.38 590.056 363.348 590.056 371.89L590.08 544.853Z" stroke="#1A1A1A" stroke-width="1.8" stroke-linecap="round" stroke-linejoin="round"/>
<path d="M558.571 371.848V374.774L589.303 375.31L590.056 375.324V371.891C590.056 363.349 582.584 356.38 574.042 356.38C569.77 356.38 565.904 358.11 563.103 360.91C560.303 363.711 558.571 367.577 558.571 371.848Z" fill="#1C0311"/>
<path d="M558.571 371.848V374.774L589.303 375.31L590.056 375.324V371.891C590.056 363.349 582.584 356.38 574.042 356.38C569.77 356.38 565.904 358.11 563.103 360.91C560.303 363.711 558.571 367.577 558.571 371.848Z" stroke="#1A1A1A" stroke-width="0.9" stroke-linecap="round" stroke-linejoin="round"/>
<path d="M604.465 563.756C604.564 563.767 604.668 563.767 604.772 563.767H749.399C753.67 563.767 757.536 562.036 760.337 559.235C763.138 556.435 764.868 552.569 764.868 548.298V545.372L734.137 544.837V545.658H619.633V548.298C619.633 552.569 617.903 556.435 615.101 559.235C612.369 561.969 608.617 563.683 604.465 563.756Z" stroke="#1A1A1A" stroke-width="1.8" stroke-linecap="round" stroke-linejoin="round"/>
<path d="M604.465 563.756C604.564 563.767 604.668 563.767 604.772 563.767H749.399C753.67 563.767 757.536 562.036 760.337 559.235C763.138 556.435 764.868 552.569 764.868 548.298V545.372L734.137 544.837V545.658H619.633V548.298C619.633 552.569 617.903 556.435 615.101 559.235C612.369 561.969 608.617 563.683 604.465 563.756Z" stroke="#1A1A1A" stroke-width="1.8" stroke-linecap="round" stroke-linejoin="round"/>
<path d="M611.542 414.666H715.755V410.736H611.542V414.666Z" fill="white"/>
<path d="M611.542 414.666H715.755V410.736H611.542V414.666Z" stroke="#1A1A1A" stroke-width="1.8" stroke-linecap="round" stroke-linejoin="round"/>
<path d="M611.542 439.627H715.755V435.698H611.542V439.627Z" fill="white"/>
<path d="M611.542 439.627H715.755V435.698H611.542V439.627Z" stroke="#1A1A1A" stroke-width="1.8" stroke-linecap="round" stroke-linejoin="round"/>
<path d="M611.542 464.59H715.755V460.66H611.542V464.59Z" fill="white"/>
<path d="M611.542 464.59H715.755V460.66H611.542V464.59Z" stroke="#1A1A1A" stroke-width="1.8" stroke-linecap="round" stroke-linejoin="round"/>
<path d="M611.542 489.552H715.755V485.622H611.542V489.552Z" fill="white"/>
<path d="M611.542 489.552H715.755V485.622H611.542V489.552Z" stroke="#1A1A1A" stroke-width="1.8" stroke-linecap="round" stroke-linejoin="round"/>
<path d="M611.542 514.513H715.755V510.583H611.542V514.513Z" fill="white"/>
<path d="M611.542 514.513H715.755V510.583H611.542V514.513Z" stroke="#1A1A1A" stroke-width="1.8" stroke-linecap="round" stroke-linejoin="round"/>
<path d="M779.346 500.098H882.323V409.347H779.346V500.098Z" fill="white"/>
<path d="M852.715 461.792C852.715 474.557 842.27 485 829.504 485C816.738 485 806.293 474.557 806.293 461.792C806.293 450.884 813.953 441.601 824.165 439.28V444.618C817.434 446.475 812.56 452.277 811.632 459.239H822.309V464.345H811.632C812.792 473.164 820.452 479.895 829.504 479.895C839.485 479.895 847.608 471.772 847.608 461.792C847.608 452.741 840.877 445.082 832.057 443.922V475.717L829.504 471.54L826.951 475.949V438.816C827.879 438.816 828.575 438.584 829.504 438.584C830.432 438.584 831.361 438.584 832.057 438.816C843.662 439.976 852.715 449.956 852.715 461.792Z" fill="#D94230"/>
<path d="M829.504 417L803.276 428.604V437.888L803.972 437.191V429.069L812.56 432.55H846.216L855.732 428.372L829.504 417Z" fill="#2959A8"/>
<path d="M846.216 430.926C846.216 433.246 846.216 440.905 846.216 440.905C841.574 437.424 835.771 435.335 829.504 435.335C823.237 435.335 817.434 437.424 812.792 440.905V430.926C812.792 430.926 827.415 419.554 846.216 430.926Z" fill="#2959A8"/>
<path opacity="0.3" d="M846.216 430.926C846.216 433.246 846.216 440.905 846.216 440.905C841.574 437.424 835.771 435.335 829.504 435.335C823.237 435.335 817.434 437.424 812.792 440.905V430.926C812.792 430.926 827.415 419.554 846.216 430.926Z" fill="url(#paint0_linear_121_4214)"/>
<path d="M803.74 435.799C804.637 435.799 805.365 435.071 805.365 434.174C805.365 433.277 804.637 432.55 803.74 432.55C802.842 432.55 802.115 433.277 802.115 434.174C802.115 435.071 802.842 435.799 803.74 435.799Z" fill="#D94230"/>
<path d="M779.346 500.098H882.323V409.347H779.346V500.098Z" stroke="#1A1A1A" stroke-width="1.8" stroke-linecap="round" stroke-linejoin="round"/>
<path d="M779.346 518.249H882.323V510.101H779.346V518.249Z" fill="#1C0311"/>
<path d="M779.346 518.249H882.323V510.101H779.346V518.249Z" stroke="#1A1A1A" stroke-width="0.9" stroke-linecap="round" stroke-linejoin="round"/>
<path d="M779.346 542.843H882.323V534.694H779.346V542.843Z" fill="#1C0311"/>
<path d="M779.346 542.843H882.323V534.694H779.346V542.843Z" stroke="#1A1A1A" stroke-width="0.9" stroke-linecap="round" stroke-linejoin="round"/>
<path d="M779.346 567.437H882.323V559.288H779.346V567.437Z" fill="#1C0311"/>
<path d="M779.346 567.437H882.323V559.288H779.346V567.437Z" stroke="#1A1A1A" stroke-width="0.9" stroke-linecap="round" stroke-linejoin="round"/>
<g opacity="0.631375">
<path d="M779.346 592.032H882.323V583.883H779.346V592.032Z" fill="#1C0311"/>
<path d="M779.346 592.032H882.323V583.883H779.346V592.032Z" stroke="#1A1A1A" stroke-width="0.9" stroke-linecap="round" stroke-linejoin="round"/>
</g>
<path d="M375.493 881.195C375.657 876.358 376.185 872.547 376.185 872.547L393.733 869.954L394.786 876.979C389.407 880.489 382.476 881.56 375.493 881.195Z" fill="#1C0311"/>
<path d="M375.493 881.195C375.657 876.358 376.185 872.547 376.185 872.547L393.733 869.954L394.786 876.979C389.407 880.489 382.476 881.56 375.493 881.195Z" stroke="#1A1A1A" stroke-width="0.9" stroke-linecap="round" stroke-linejoin="round"/>
<path d="M397.93 882.687C399.47 882.071 400.456 880.723 400.684 879.188C401.562 879.462 402.57 879.777 403.733 880.14C413.92 883.104 435.035 894.216 434.294 898.476C433.553 902.735 389.657 903.477 381.137 900.884C376.433 899.452 375.414 890.965 375.445 883.648C382.94 884.347 390.435 885.186 397.93 882.687Z" fill="white"/>
<path d="M397.93 882.687C399.47 882.071 400.456 880.723 400.684 879.188C401.562 879.462 402.57 879.777 403.733 880.14C413.92 883.104 435.035 894.216 434.294 898.476C433.553 902.735 389.657 903.477 381.137 900.884C376.433 899.452 375.414 890.965 375.445 883.648C382.94 884.347 390.435 885.186 397.93 882.687Z" stroke="#1A1A1A" stroke-width="1.8" stroke-linecap="round" stroke-linejoin="round"/>
<path d="M394.785 876.979L394.843 877.363C394.843 877.363 394.846 877.363 400.684 879.188C400.455 880.723 399.469 882.071 397.93 882.687C390.435 885.186 382.94 884.347 375.446 883.648C375.45 882.81 375.466 881.988 375.493 881.194C382.476 881.56 389.405 880.489 394.785 876.979Z" fill="white"/>
<path d="M394.785 876.979L394.843 877.363C394.843 877.363 394.846 877.363 400.684 879.188C400.455 880.723 399.469 882.071 397.93 882.687C390.435 885.186 382.94 884.347 375.446 883.648C375.45 882.81 375.466 881.988 375.493 881.194C382.476 881.56 389.405 880.489 394.785 876.979Z" stroke="#1A1A1A" stroke-width="1.8" stroke-linecap="round" stroke-linejoin="round"/>
<path d="M417.29 536.769C417.29 536.769 406.567 858.709 398.433 873.254C384.798 878.665 374.431 875.017 374.431 875.017C374.431 875.017 347.984 697.387 338.066 639.867C328.148 582.347 346.11 533.122 346.11 533.122" fill="#D94230"/>
<path d="M417.29 536.769C417.29 536.769 406.567 858.709 398.433 873.254C384.798 878.665 374.431 875.017 374.431 875.017C374.431 875.017 347.984 697.387 338.066 639.867C328.148 582.347 346.11 533.122 346.11 533.122" stroke="black" stroke-width="1.8" stroke-linecap="round" stroke-linejoin="round"/>
<path d="M376.184 576.499C376.184 576.499 371.877 592.331 358.172 594.553" stroke="#1A1A1A" stroke-width="1.8" stroke-linecap="round" stroke-linejoin="round"/>
<path d="M334.591 877.145C335.692 871.964 336.685 868.102 336.685 868.102L352.799 871.62C352.799 871.62 353.984 876.486 355.058 880.616C348.171 880.906 341.089 879.748 334.591 877.145Z" fill="#1C0311"/>
<path d="M334.591 877.145C335.692 871.964 336.685 868.102 336.685 868.102L352.799 871.62C352.799 871.62 353.984 876.486 355.058 880.616C348.171 880.906 341.089 879.748 334.591 877.145Z" stroke="#1A1A1A" stroke-width="0.9" stroke-linecap="round" stroke-linejoin="round"/>
<path d="M346.487 889.962C341.383 889.004 337.066 886.476 333.408 883.109C333.789 881.03 334.196 879.002 334.591 877.146C341.089 879.748 348.171 880.906 355.058 880.616C355.786 883.416 356.464 885.878 356.689 886.252C356.78 886.405 357.709 887.177 359.171 888.387C356.788 891.341 349.984 890.836 346.487 889.962Z" fill="white"/>
<path d="M346.487 889.962C341.383 889.004 337.066 886.476 333.408 883.109C333.789 881.03 334.196 879.002 334.591 877.146C341.089 879.748 348.171 880.906 355.058 880.616C355.786 883.416 356.464 885.878 356.689 886.252C356.78 886.405 357.709 887.177 359.171 888.387C356.788 891.341 349.984 890.836 346.487 889.962Z" stroke="#1A1A1A" stroke-width="1.8" stroke-linecap="round" stroke-linejoin="round"/>
<path d="M346.487 889.961C349.984 890.835 356.788 891.34 359.171 888.387C366.591 894.524 387.845 911.982 384.285 917.552C380.026 924.219 336.685 907.921 332.797 903.106C330.796 900.63 331.882 891.447 333.408 883.109C337.066 886.476 341.383 889.004 346.487 889.961Z" fill="white"/>
<path d="M346.487 889.961C349.984 890.835 356.788 891.34 359.171 888.387C366.591 894.524 387.845 911.982 384.285 917.552C380.026 924.219 336.685 907.921 332.797 903.106C330.796 900.63 331.882 891.447 333.408 883.109C337.066 886.476 341.383 889.004 346.487 889.961Z" stroke="#1A1A1A" stroke-width="1.8" stroke-linecap="round" stroke-linejoin="round"/>
<path d="M339.388 530.778C339.388 530.778 313.602 554.579 316.908 625.322C320.214 696.066 333.765 868.833 333.765 868.833C333.765 868.833 342.066 880.922 354.838 874.169C359.416 863.751 381.84 759.778 397.267 669.224C397.267 669.224 408.179 591.775 409.846 571.774" fill="#D94230"/>
<path d="M339.388 530.778C339.388 530.778 313.602 554.579 316.908 625.322C320.214 696.066 333.765 868.833 333.765 868.833C333.765 868.833 342.066 880.922 354.838 874.169C359.416 863.751 381.84 759.778 397.267 669.224C397.267 669.224 408.179 591.775 409.846 571.774" stroke="black" stroke-width="1.8" stroke-linecap="round" stroke-linejoin="round"/>
<path d="M392.385 456.606C400.908 486.464 443.846 463.047 443.846 463.047C443.846 463.047 455.397 456.631 459.445 455.665C463.362 454.732 465.518 440.015 460.388 435.398C457.224 432.551 428.967 443.712 428.967 443.712C428.967 443.712 394.136 452.761 400.878 430.469" fill="white"/>
<path d="M392.385 456.606C400.908 486.464 443.846 463.047 443.846 463.047C443.846 463.047 455.397 456.631 459.445 455.665C463.362 454.732 465.518 440.015 460.388 435.398C457.224 432.551 428.967 443.712 428.967 443.712C428.967 443.712 394.136 452.761 400.878 430.469" stroke="#1A1A1A" stroke-width="1.8" stroke-linecap="round" stroke-linejoin="round"/>
<path d="M457.692 435.252C457.692 435.252 472.184 429.647 477.012 432.436C481.839 435.226 489.192 447.095 483.239 456.153C482.465 457.268 481.845 453.724 481.845 453.724C481.845 453.724 482.96 448.935 480.093 447.057C475.036 452.227 469.784 451.77 466.365 450.523C462.947 449.276 457.738 449.957 457.738 449.957C457.738 449.957 451.741 438.785 457.692 435.252Z" fill="white"/>
<path d="M457.692 435.252C457.692 435.252 472.184 429.647 477.012 432.436C481.839 435.226 489.192 447.095 483.239 456.153C482.465 457.268 481.845 453.724 481.845 453.724C481.845 453.724 482.96 448.935 480.093 447.057C475.036 452.227 469.784 451.77 466.365 450.523C462.947 449.276 457.738 449.957 457.738 449.957C457.738 449.957 451.741 438.785 457.692 435.252Z" stroke="#1A1A1A" stroke-width="1.8" stroke-linecap="round" stroke-linejoin="round"/>
<path d="M374.743 405.726L379.978 383.686C379.978 383.686 397.622 389.243 402.612 378.933C407.601 368.624 411.998 343.441 396.199 333.661C382.474 325.164 370.548 324.383 363.843 341.448C357.139 358.512 355.795 364.592 353.397 376.796C351 389 349.895 401.361 349.895 401.361C349.895 401.361 369.941 415.579 374.743 405.726Z" fill="white"/>
<path d="M374.743 405.726L379.978 383.686C379.978 383.686 397.622 389.243 402.612 378.933C407.601 368.624 411.998 343.441 396.199 333.661C382.474 325.164 370.548 324.383 363.843 341.448C357.139 358.512 357.426 365.452 353.397 376.796C351.5 389 349.895 401.361 349.895 401.361C349.895 401.361 369.941 415.579 374.743 405.726Z" stroke="#1A1A1A" stroke-width="1.8" stroke-linecap="round" stroke-linejoin="round"/>
<path d="M408.676 346.281C408.676 346.281 408.25 352.61 398.319 350.521C388.387 348.432 388.395 353.072 388.613 356.04C388.831 359.007 385.641 363.549 381.985 361.993C378.329 360.439 372.063 363.135 374.09 368.165C376.116 373.197 373.417 379.362 366.691 378.032C362.662 384.128 348.944 384.637 349.195 374.508C340.63 372.982 340.444 361.393 349.29 355.442C341.528 349.05 342.149 342.101 353.22 341.232C344.951 327.916 365.087 318.818 372.854 325.871C376.808 321.604 392.478 320.06 393.477 328.306C400.016 326.2 417.737 328.878 408.676 346.281Z" fill="#1C0311"/>
<path d="M408.676 346.281C408.676 346.281 408.25 352.61 398.319 350.521C388.387 348.432 388.395 353.072 388.613 356.04C388.831 359.007 385.641 363.549 381.985 361.993C378.329 360.439 372.063 363.135 374.09 368.165C376.116 373.197 373.417 379.362 366.691 378.032C362.662 384.128 348.944 384.637 349.195 374.508C340.63 372.982 340.444 361.393 349.29 355.442C341.528 349.05 342.149 342.101 353.22 341.232C344.951 327.916 365.087 318.818 372.854 325.871C376.808 321.604 392.478 320.06 393.477 328.306C400.016 326.2 417.737 328.878 408.676 346.281Z" stroke="#1A1A1A" stroke-width="0.9" stroke-linecap="round" stroke-linejoin="round"/>
<path d="M416.387 538.246C406.769 508.146 340.916 529.918 340.916 529.918L416.387 538.246Z" fill="white"/>
<path d="M416.387 538.246C406.769 508.146 340.916 529.918 340.916 529.918" stroke="#1A1A1A" stroke-width="1.8" stroke-linecap="round" stroke-linejoin="round"/>
<path d="M415.707 545.623C415.707 545.623 373.416 558.091 348.007 548.557C330.801 541.515 330.5 542.5 330.5 542.5L335.252 528.259L417.363 534.672L416.352 545.632" fill="#1C0311"/>
<path d="M415.707 545.623C415.707 545.623 373.416 558.091 348.007 548.557C330.801 541.515 330 542.5 330 542.5L335.252 528.259L417.363 534.672L416.352 545.632" stroke="#1A1A1A" stroke-width="0.9" stroke-linecap="round" stroke-linejoin="round"/>
<path d="M377.588 395.03C377.588 395.03 404.099 415.057 413.047 429.692C424.345 448.171 422.479 520.383 422.479 520.383C422.479 520.383 402.62 522.441 401.558 520.913C400.496 519.385 361.485 411.795 361.667 409.828" fill="white"/>
<path d="M377.588 395.03C377.588 395.03 404.099 415.057 413.047 429.692C424.345 448.171 422.479 520.383 422.479 520.383C422.479 520.383 402.62 522.441 401.558 520.913C400.496 519.385 361.485 411.795 361.667 409.828" stroke="#1A1A1A" stroke-width="1.8" stroke-linecap="round" stroke-linejoin="round"/>
<path d="M400.7 437.444C420.234 477.323 440.687 532.312 410.847 542.01C363.103 557.526 332 536.5 332 536.5C332 536.5 324.598 397.837 344.219 395.662C363.841 393.487 377.588 395.031 377.588 395.031" fill="white"/>
<path d="M400.7 437.444C420.234 477.323 440.687 532.312 410.847 542.01C363.103 557.526 332 536 332 536C332 536 324.598 397.837 344.219 395.662C363.841 393.487 377.588 395.031 377.588 395.031" stroke="#1A1A1A" stroke-width="1.8" stroke-linecap="round" stroke-linejoin="round"/>
<path d="M376.533 419.381C376.533 419.381 385.637 433.613 389.019 446.696" stroke="#1A1A1A" stroke-width="1.8" stroke-linecap="round" stroke-linejoin="round"/>
<path d="M454.852 449.976L480.574 486.047L422.269 504.945L387.689 475.475L454.852 449.976Z" fill="white"/>
<path d="M454.852 449.976L480.574 486.047L422.269 504.945L387.689 475.475L454.852 449.976Z" stroke="#1A1A1A" stroke-width="1.8" stroke-linecap="round" stroke-linejoin="round"/>
<path d="M471.776 442.798L482.666 482.045L477.665 482.12L467.914 443.878L471.776 442.798Z" fill="#1C0311"/>
<path d="M471.776 442.798L482.666 482.045L477.665 482.12L467.914 443.878L471.776 442.798Z" stroke="#1A1A1A" stroke-width="0.9" stroke-linecap="round" stroke-linejoin="round"/>
<path d="M480.572 486.048L454.852 449.976L458.437 448.572L484.343 481.512L480.572 486.048Z" fill="#1C0311"/>
<path d="M480.572 486.048L454.852 449.976L458.437 448.572L484.343 481.512L480.572 486.048Z" stroke="#1A1A1A" stroke-width="0.9" stroke-linecap="round" stroke-linejoin="round"/>
<path d="M414.519 486.931C414.519 486.931 442.584 486.543 447.567 485.502C452.551 484.461 454.39 487.993 451.239 489.599C448.087 491.206 438.922 491.714 438.85 493.565C438.778 495.416 457.875 492.999 457.875 492.999C457.875 492.999 458.627 499.773 452.949 502.764C447.271 505.755 441.751 507.887 432.87 504.328C423.988 500.769 410.244 501.469 410.244 501.469" fill="white"/>
<path d="M414.519 486.931C414.519 486.931 442.584 486.543 447.567 485.502C452.551 484.461 454.39 487.993 451.239 489.599C448.087 491.206 438.922 491.714 438.85 493.565C438.778 495.416 457.875 492.999 457.875 492.999C457.875 492.999 458.627 499.773 452.949 502.764C447.271 505.755 441.751 507.887 432.87 504.328C423.988 500.769 410.244 501.469 410.244 501.469" stroke="#1A1A1A" stroke-width="1.8" stroke-linecap="round" stroke-linejoin="round"/>
<path d="M357.501 443.715C357.501 443.715 342.498 475.551 348.834 477.893C357.816 481.215 415.077 484.449 415.077 484.449C415.077 484.449 423.778 498.364 417.557 502.495C391.107 520.058 319.241 519.077 309.82 489.934C297.816 452.797 340.946 397.668 340.946 397.668" fill="white"/>
<path d="M357.501 443.715C357.501 443.715 342.498 475.551 348.834 477.893C357.816 481.215 415.077 484.449 415.077 484.449C415.077 484.449 423.778 498.364 417.557 502.495C391.107 520.058 319.241 519.077 309.82 489.934C297.816 452.797 340.946 397.668 340.946 397.668" stroke="#1A1A1A" stroke-width="1.8" stroke-linecap="round" stroke-linejoin="round"/>
</g>
</g>
<ellipse cx="399" cy="362.5" rx="2" ry="2.5" fill="black"/>
</g>
<defs>
<linearGradient id="paint0_linear_121_4214" x1="839.788" y1="437.234" x2="813.414" y2="431.364" gradientUnits="userSpaceOnUse">
<stop stop-color="white" stop-opacity="0"/>
<stop offset="1" stop-color="white"/>
</linearGradient>
<clipPath id="clip0_121_4214">
<rect width="1088" height="1088" fill="white" transform="matrix(-1 0 0 1 1076 -20)"/>
</clipPath>
</defs>
</svg>
